<svg width="300" height="60" viewBox="0 0 300 60" fill="none" xmlns="http://www.w3.org/2000/svg">
<rect width="60" height="60" rx="20" fill="#DCFAF8"/>
<g clip-path="url(#clip0_101_279)">
<path d="M40.0476 35.2021C39.2662 34.733 37.641 33.7564 37.641 31.216C37.641 29.0719 39.0759 27.9898 39.8466 27.4086L39.8627 27.3964C40.1721 27.1631 40.2458 26.7287 40.0311 26.4061C38.3091 23.8207 35.3519 23.7461 34.777 23.7568H34.7735C34.3792 23.7573 34.0029 23.8027 33.6461 23.8744C33.7779 23.769 33.9058 23.6567 34.0287 23.5377C35.2606 22.3458 35.9376 20.5873 35.8854 18.7116C35.8741 18.3158 35.5501 18 35.1538 18C33.8213 18 32.3063 18.796 31.1999 20.0777C30.0851 21.3692 29.5644 22.9163 29.7718 24.322C29.7889 24.4386 29.8338 24.545 29.8982 24.6363C29.703 24.5709 29.4965 24.4948 29.2925 24.4196C28.5174 24.1341 27.6384 23.8105 26.8155 23.8105C26.7989 23.8105 25.1258 23.8227 23.4552 24.8603C21.9939 25.7686 20.2515 27.6589 20.2515 31.5093C20.2515 33.5119 21.0338 36.3154 22.2447 38.6523C23.0813 40.2668 24.8174 42.9766 27.0469 42.9893H27.0708C28.6966 42.9893 30.0436 42.0292 30.9598 42.0292C32.5245 42.0292 33.0814 43 34.7735 43C36.2905 43 37.7605 41.8477 39.1432 39.5757C39.6508 38.7411 40.0457 37.9158 40.2873 37.3701C40.7485 36.3305 40.7485 36.1919 40.7485 36.0904C40.7485 35.6233 40.3922 35.409 40.0476 35.2021ZM32.3083 21.0343C32.9091 20.3384 33.6661 19.822 34.3831 19.594C34.2459 20.7308 33.7657 21.7552 33.0106 22.4854C32.4816 22.9974 31.8466 23.3302 31.2018 23.4449C31.2702 22.6406 31.6548 21.7913 32.3083 21.0343ZM37.8216 38.9295C36.7766 40.6104 35.694 41.5358 34.7735 41.5358C33.507 41.5358 32.915 40.565 30.9598 40.565C29.6405 40.565 28.3818 41.5319 27.0552 41.525C26.0205 41.5192 24.6753 40.1604 23.545 37.9787C22.4336 35.8346 21.7157 33.2952 21.7157 31.5093C21.7157 28.9811 22.5469 27.1718 24.1848 26.1313C25.4602 25.3216 26.7648 25.2762 26.8199 25.2747C27.963 25.2776 29.5497 26.2894 30.706 26.2894C31.747 26.2894 33.1409 25.221 34.7789 25.221H34.8058C35.203 25.2132 37.0787 25.2576 38.3965 26.6877C37.4653 27.472 36.1768 28.8825 36.1768 31.216C36.1768 34.3855 38.1813 35.777 39.1281 36.3573C38.8924 36.9284 38.4429 37.9304 37.8216 38.9295Z" fill="#16DBCC"/>
</g>
<path d="M82.2614 23L83.3295 19.9205H87.875L88.9375 23H90.8011L86.6136 11.3636H84.5852L80.3977 23H82.2614ZM83.8409 18.4432L85.5568 13.4773H85.6477L87.3636 18.4432H83.8409ZM92.3452 26.2727H94.044V21.642H94.1463C94.4531 22.1989 95.0781 23.1705 96.669 23.1705C98.7827 23.1705 100.317 21.4773 100.317 18.6534C100.317 15.8239 98.7599 14.1591 96.652 14.1591C95.0327 14.1591 94.4474 15.1477 94.1463 15.6875H94.0043V14.2727H92.3452V26.2727ZM94.0099 18.6364C94.0099 16.8125 94.8054 15.6023 96.2884 15.6023C97.8281 15.6023 98.6009 16.9034 98.6009 18.6364C98.6009 20.3864 97.8054 21.7216 96.2884 21.7216C94.8281 21.7216 94.0099 20.4716 94.0099 18.6364ZM102.22 26.2727H103.919V21.642H104.021C104.328 22.1989 104.953 23.1705 106.544 23.1705C108.658 23.1705 110.192 21.4773 110.192 18.6534C110.192 15.8239 108.635 14.1591 106.527 14.1591C104.908 14.1591 104.322 15.1477 104.021 15.6875H103.879V14.2727H102.22V26.2727ZM103.885 18.6364C103.885 16.8125 104.68 15.6023 106.163 15.6023C107.703 15.6023 108.476 16.9034 108.476 18.6364C108.476 20.3864 107.68 21.7216 106.163 21.7216C104.703 21.7216 103.885 20.4716 103.885 18.6364ZM113.794 11.3636H112.095V23H113.794V11.3636ZM119.841 23.1761C121.744 23.1761 123.091 22.2386 123.477 20.8182L121.869 20.5284C121.562 21.3523 120.824 21.7727 119.858 21.7727C118.403 21.7727 117.426 20.8295 117.381 19.1477H123.585V18.5455C123.585 15.392 121.699 14.1591 119.722 14.1591C117.29 14.1591 115.688 16.0114 115.688 18.6932C115.688 21.4034 117.267 23.1761 119.841 23.1761ZM117.386 17.875C117.455 16.6364 118.352 15.5625 119.733 15.5625C121.051 15.5625 121.915 16.5398 121.92 17.875H117.386ZM136.188 14.4205H137.881C137.83 12.5568 136.182 11.2045 133.818 11.2045C131.483 11.2045 129.693 12.5398 129.693 14.5455C129.693 16.1648 130.852 17.1136 132.722 17.6193L134.097 17.9943C135.341 18.3239 136.301 18.733 136.301 19.767C136.301 20.9034 135.216 21.6534 133.722 21.6534C132.369 21.6534 131.244 21.0511 131.142 19.7841H129.381C129.494 21.892 131.125 23.1932 133.733 23.1932C136.466 23.1932 138.04 21.7557 138.04 19.7841C138.04 17.6875 136.17 16.875 134.693 16.5114L133.557 16.2159C132.648 15.983 131.438 15.5568 131.443 14.4432C131.443 13.4545 132.347 12.7216 133.778 12.7216C135.114 12.7216 136.062 13.3466 136.188 14.4205ZM144.075 14.2727H142.286V12.1818H140.587V14.2727H139.308V15.6364H140.587V20.7898C140.581 22.375 141.791 23.142 143.132 23.1136C143.672 23.108 144.036 23.0057 144.234 22.9318L143.928 21.5284C143.814 21.5511 143.604 21.6023 143.331 21.6023C142.78 21.6023 142.286 21.4205 142.286 20.4375V15.6364H144.075V14.2727ZM149.537 23.1761C151.997 23.1761 153.605 21.375 153.605 18.6761C153.605 15.9602 151.997 14.1591 149.537 14.1591C147.077 14.1591 145.469 15.9602 145.469 18.6761C145.469 21.375 147.077 23.1761 149.537 23.1761ZM149.543 21.75C147.935 21.75 147.185 20.3466 147.185 18.6705C147.185 17 147.935 15.5795 149.543 15.5795C151.139 15.5795 151.889 17 151.889 18.6705C151.889 20.3466 151.139 21.75 149.543 21.75ZM155.501 23H157.2V17.6705C157.2 16.5284 158.081 15.7045 159.286 15.7045C159.638 15.7045 160.036 15.767 160.172 15.8068V14.1818C160.001 14.1591 159.666 14.142 159.45 14.142C158.428 14.142 157.553 14.7216 157.234 15.6591H157.143V14.2727H155.501V23ZM165.091 23.1761C166.994 23.1761 168.341 22.2386 168.727 20.8182L167.119 20.5284C166.812 21.3523 166.074 21.7727 165.108 21.7727C163.653 21.7727 162.676 20.8295 162.631 19.1477H168.835V18.5455C168.835 15.392 166.949 14.1591 164.972 14.1591C162.54 14.1591 160.938 16.0114 160.938 18.6932C160.938 21.4034 162.517 23.1761 165.091 23.1761ZM162.636 17.875C162.705 16.6364 163.602 15.5625 164.983 15.5625C166.301 15.5625 167.165 16.5398 167.17 17.875H162.636Z" fill="#B1B1B1"/>
<path d="M84.5384 48.1491C86.6158 48.1491 88.1392 46.6151 88.1392 44.527C88.1392 42.4123 86.669 40.8622 84.6662 40.8622C83.9311 40.8622 83.2173 41.1232 82.7699 41.4801H82.706L83.0895 38.2628H87.6491V37.0909H81.9815L81.321 42.4602L82.5568 42.6094C83.0096 42.2844 83.782 42.0501 84.4531 42.0554C85.8434 42.0661 86.8608 43.1207 86.8608 44.5483C86.8608 45.9492 85.8807 46.9773 84.5384 46.9773C83.4197 46.9773 82.5302 46.2582 82.429 45.2727H81.1506C81.2305 46.9347 82.6634 48.1491 84.5384 48.1491ZM91.5336 43.0781C91.5336 41.6506 92.4445 40.8409 93.6856 40.8409C94.8682 40.8409 95.5819 41.5866 95.5819 42.8864V48H96.839V42.8011C96.839 40.6971 95.7204 39.7116 94.0479 39.7116C92.7588 39.7116 92.0237 40.2496 91.6402 41.0966H91.5336V37.0909H90.2765V48H91.5336V43.0781ZM105.765 48.1918C107.193 48.1918 107.939 47.4247 108.194 46.892H108.258V48H109.515V42.6094C109.515 40.0099 107.534 39.7116 106.49 39.7116C105.254 39.7116 103.848 40.1378 103.208 41.6293L104.402 42.0554C104.679 41.4588 105.334 40.8196 106.532 40.8196C107.688 40.8196 108.258 41.4322 108.258 42.4815V42.5241C108.258 43.1314 107.64 43.0781 106.149 43.2699C104.631 43.467 102.974 43.8026 102.974 45.6776C102.974 47.2756 104.21 48.1918 105.765 48.1918ZM105.957 47.0625C104.956 47.0625 104.231 46.6151 104.231 45.7415C104.231 44.7827 105.105 44.4844 106.085 44.3565C106.618 44.2926 108.045 44.1435 108.258 43.8878V45.0384C108.258 46.0611 107.449 47.0625 105.957 47.0625ZM115.112 51.2386C117.073 51.2386 118.649 50.3438 118.649 48.2344V39.8182H117.435V41.1179H117.307C117.03 40.6918 116.519 39.7116 114.921 39.7116C112.854 39.7116 111.426 41.3523 111.426 43.8665C111.426 46.4233 112.918 47.8722 114.899 47.8722C116.497 47.8722 117.009 46.9347 117.286 46.4872H117.392V48.1491C117.392 49.5128 116.433 50.1307 115.112 50.1307C113.626 50.1307 113.104 49.3477 112.769 48.8949L111.767 49.598C112.278 50.4556 113.285 51.2386 115.112 51.2386ZM115.07 46.7429C113.493 46.7429 112.683 45.5497 112.683 43.8452C112.683 42.1832 113.472 40.8409 115.07 40.8409C116.604 40.8409 117.413 42.0767 117.413 43.8452C117.413 45.6562 116.582 46.7429 115.07 46.7429ZM124.274 48.1705C126.49 48.1705 127.982 46.4872 127.982 43.9517C127.982 41.3949 126.49 39.7116 124.274 39.7116C122.058 39.7116 120.567 41.3949 120.567 43.9517C120.567 46.4872 122.058 48.1705 124.274 48.1705ZM124.274 47.0412C122.591 47.0412 121.824 45.5923 121.824 43.9517C121.824 42.3111 122.591 40.8409 124.274 40.8409C125.957 40.8409 126.725 42.3111 126.725 43.9517C126.725 45.5923 125.957 47.0412 124.274 47.0412Z" fill="#718EBF"/>
<path d="M264.433 37.4545H265.365V36.1875C267.751 36.0227 269.092 34.6136 269.092 32.8409C269.092 30.6591 267.024 29.9545 265.82 29.6364L265.365 29.5114V25.4716C266.57 25.5909 267.445 26.2386 267.57 27.2727H268.933C268.876 25.6136 267.422 24.3523 265.365 24.2159V22.9091H264.433V24.233C262.484 24.4318 261.024 25.6705 261.024 27.4545C261.024 29.0227 262.161 29.9545 263.979 30.4773L264.433 30.608V34.9091C263.24 34.7841 262.263 34.1705 262.161 33H260.706C260.837 34.7898 262.2 36.0398 264.433 36.1875V37.4545ZM265.365 34.9091V30.875L265.411 30.8864C266.638 31.2273 267.729 31.6591 267.729 32.8182C267.729 33.9602 266.74 34.7557 265.365 34.9091ZM264.433 29.2614C263.57 29.017 262.388 28.5398 262.388 27.3864C262.388 26.4034 263.183 25.6534 264.433 25.4886V29.2614ZM270.932 33.6136H276.409V36H277.75V33.6136H279.341V32.3636H277.75V24.3636H276.045L270.932 32.4545V33.6136ZM276.409 32.3636H272.455V32.2727L276.318 26.1591H276.409V32.3636ZM285.107 36.1591C287.322 36.1591 288.947 34.5227 288.947 32.2955C288.947 30.0398 287.379 28.3864 285.243 28.3864C284.459 28.3864 283.697 28.6648 283.22 29.0455H283.152L283.561 25.6136H288.425V24.3636H282.379L281.675 30.0909L282.993 30.25C283.476 29.9034 284.3 29.6534 285.016 29.6591C286.499 29.6705 287.584 30.7955 287.584 32.3182C287.584 33.8125 286.538 34.9091 285.107 34.9091C283.913 34.9091 282.964 34.142 282.857 33.0909H281.493C281.578 34.8636 283.107 36.1591 285.107 36.1591ZM295 36.1591C297.568 36.1591 299.045 33.983 299.045 30.1818C299.045 26.4091 297.545 24.2045 295 24.2045C292.455 24.2045 290.955 26.4091 290.955 30.1818C290.955 33.983 292.432 36.1591 295 36.1591ZM295 34.9091C293.307 34.9091 292.318 33.2102 292.318 30.1818C292.318 27.1591 293.318 25.4318 295 25.4318C296.682 25.4318 297.682 27.1591 297.682 30.1818C297.682 33.2102 296.693 34.9091 295 34.9091Z" fill="#718EBF"/>
<defs>
<clipPath id="clip0_101_279">
<rect width="25" height="25" fill="white" transform="translate(18 18)"/>
</clipPath>
</defs>
</svg>
