<svg width="680" height="55" viewBox="0 0 680 55" fill="none" xmlns="http://www.w3.org/2000/svg">
<path d="M81.2784 20H88.642V18.4886H83.0341V14.9261H88.1932V13.4205H83.0341V9.875H88.5739V8.36364H81.2784V20ZM90.7827 20H92.4815V14.6193C92.4815 13.4432 93.3054 12.625 94.2713 12.625C95.2145 12.625 95.8679 13.25 95.8679 14.1989V20H97.5611V14.4375C97.5611 13.3864 98.2031 12.625 99.3111 12.625C100.209 12.625 100.947 13.125 100.947 14.3068V20H102.646V14.1477C102.646 12.1534 101.533 11.1591 99.9531 11.1591C98.6974 11.1591 97.7543 11.7614 97.3338 12.6932H97.2429C96.8622 11.7386 96.0611 11.1591 94.8963 11.1591C93.7429 11.1591 92.8849 11.733 92.5213 12.6932H92.4134V11.2727H90.7827V20ZM104.923 20H106.622V11.2727H104.923V20ZM105.781 9.92614C106.366 9.92614 106.855 9.47159 106.855 8.91477C106.855 8.35795 106.366 7.89773 105.781 7.89773C105.19 7.89773 104.707 8.35795 104.707 8.91477C104.707 9.47159 105.19 9.92614 105.781 9.92614ZM110.607 8.36364H108.908V20H110.607V8.36364ZM114.591 8.36364H112.892V20H114.591V8.36364ZM117.95 23.2727C119.354 23.2727 120.24 22.5398 120.746 21.1648L124.354 11.2898L122.518 11.2727L120.308 18.0455H120.217L118.007 11.2727H116.189L119.382 20.1136L119.172 20.6932C118.74 21.8523 118.132 21.9489 117.2 21.6932L116.791 23.0852C116.996 23.1761 117.439 23.2727 117.95 23.2727ZM132.604 20H134.376L136.825 11.2841H136.916L139.365 20H141.132L144.365 8.36364H142.513L140.251 17.3807H140.143L137.786 8.36364H135.956L133.598 17.375H133.49L131.223 8.36364H129.376L132.604 20ZM145.83 20H147.528V11.2727H145.83V20ZM146.688 9.92614C147.273 9.92614 147.761 9.47159 147.761 8.91477C147.761 8.35795 147.273 7.89773 146.688 7.89773C146.097 7.89773 145.614 8.35795 145.614 8.91477C145.614 9.47159 146.097 9.92614 146.688 9.92614ZM151.513 8.36364H149.814V20H151.513V8.36364ZM160.338 13.4034C159.986 12.0455 158.923 11.1591 157.037 11.1591C155.065 11.1591 153.668 12.1989 153.668 13.7443C153.668 14.983 154.418 15.8068 156.054 16.1705L157.531 16.4943C158.372 16.6818 158.764 17.0568 158.764 17.6023C158.764 18.2784 158.043 18.8068 156.929 18.8068C155.912 18.8068 155.259 18.3693 155.054 17.5114L153.412 17.7614C153.696 19.3068 154.98 20.1761 156.94 20.1761C159.048 20.1761 160.509 19.0568 160.509 17.4773C160.509 16.2443 159.724 15.483 158.122 15.1136L156.736 14.7955C155.776 14.5682 155.361 14.2443 155.366 13.6534C155.361 12.983 156.088 12.5057 157.054 12.5057C158.111 12.5057 158.599 13.0909 158.798 13.6761L160.338 13.4034ZM166.053 20.1761C168.513 20.1761 170.121 18.375 170.121 15.6761C170.121 12.9602 168.513 11.1591 166.053 11.1591C163.592 11.1591 161.984 12.9602 161.984 15.6761C161.984 18.375 163.592 20.1761 166.053 20.1761ZM166.058 18.75C164.45 18.75 163.7 17.3466 163.7 15.6705C163.7 14 164.45 12.5795 166.058 12.5795C167.655 12.5795 168.405 14 168.405 15.6705C168.405 17.3466 167.655 18.75 166.058 18.75ZM173.716 14.8182C173.716 13.4261 174.568 12.6307 175.75 12.6307C176.903 12.6307 177.602 13.3864 177.602 14.6534V20H179.301V14.4489C179.301 12.2898 178.114 11.1591 176.33 11.1591C175.017 11.1591 174.159 11.767 173.756 12.6932H173.648V11.2727H172.017V20H173.716V14.8182Z" fill="#232323"/>
<path d="M81.1293 45H88.0114V43.8281H82.9403V43.7429L85.3906 41.1222C87.2656 39.114 87.8196 38.1765 87.8196 36.9673C87.8196 35.2841 86.456 33.9418 84.5384 33.9418C82.6261 33.9418 81.1719 35.2415 81.1719 37.1591H82.429C82.429 35.918 83.2333 35.0923 84.4957 35.0923C85.6783 35.0923 86.5838 35.8168 86.5838 36.9673C86.5838 37.9741 85.9925 38.7198 84.7301 40.0994L81.1293 44.0412V45ZM93.6204 45.1491C95.6978 45.1491 97.2212 43.6151 97.2212 41.527C97.2212 39.4123 95.7511 37.8622 93.7482 37.8622C93.0131 37.8622 92.2994 38.1232 91.8519 38.4801H91.788L92.1715 35.2628H96.7312V34.0909H91.0636L90.4031 39.4602L91.6388 39.6094C92.0916 39.2844 92.864 39.0501 93.5352 39.0554C94.9254 39.0661 95.9428 40.1207 95.9428 41.5483C95.9428 42.9492 94.9627 43.9773 93.6204 43.9773C92.5018 43.9773 91.6122 43.2582 91.511 42.2727H90.2326C90.3125 43.9347 91.7454 45.1491 93.6204 45.1491ZM107.924 34.0909V41.8892C107.924 43.2475 107.274 43.9773 106.134 43.9773C105.095 43.9773 104.344 43.37 104.344 42.4432H103.045C103.045 44.1211 104.344 45.1491 106.134 45.1491C108.03 45.1491 109.245 43.9826 109.245 41.8892V34.0909H107.924ZM114.13 45.1918C115.557 45.1918 116.303 44.4247 116.559 43.892H116.622V45H117.88V39.6094C117.88 37.0099 115.898 36.7116 114.854 36.7116C113.618 36.7116 112.212 37.1378 111.573 38.6293L112.766 39.0554C113.043 38.4588 113.698 37.8196 114.897 37.8196C116.052 37.8196 116.622 38.4322 116.622 39.4815V39.5241C116.622 40.1314 116.005 40.0781 114.513 40.2699C112.995 40.467 111.338 40.8026 111.338 42.6776C111.338 44.2756 112.574 45.1918 114.13 45.1918ZM114.321 44.0625C113.32 44.0625 112.595 43.6151 112.595 42.7415C112.595 41.7827 113.469 41.4844 114.449 41.3565C114.982 41.2926 116.409 41.1435 116.622 40.8878V42.0384C116.622 43.0611 115.813 44.0625 114.321 44.0625ZM121.431 40.0781C121.431 38.6506 122.315 37.8409 123.519 37.8409C124.686 37.8409 125.394 38.6026 125.394 39.8864V45H126.651V39.8011C126.651 37.7131 125.538 36.7116 123.881 36.7116C122.646 36.7116 121.879 37.2656 121.495 38.0966H121.388V36.8182H120.174V45H121.431V40.0781ZM133.146 45H140.028V43.8281H134.957V43.7429L137.407 41.1222C139.282 39.114 139.836 38.1765 139.836 36.9673C139.836 35.2841 138.473 33.9418 136.555 33.9418C134.643 33.9418 133.188 35.2415 133.188 37.1591H134.446C134.446 35.918 135.25 35.0923 136.512 35.0923C137.695 35.0923 138.6 35.8168 138.6 36.9673C138.6 37.9741 138.009 38.7198 136.747 40.0994L133.146 44.0412V45ZM145.786 45.1491C148.194 45.1491 149.579 43.109 149.579 39.5455C149.579 36.0085 148.172 33.9418 145.786 33.9418C143.4 33.9418 141.994 36.0085 141.994 39.5455C141.994 43.109 143.378 45.1491 145.786 45.1491ZM145.786 43.9773C144.199 43.9773 143.272 42.3846 143.272 39.5455C143.272 36.7116 144.209 35.0923 145.786 35.0923C147.363 35.0923 148.3 36.7116 148.3 39.5455C148.3 42.3846 147.373 43.9773 145.786 43.9773ZM151.603 45H158.485V43.8281H153.414V43.7429L155.864 41.1222C157.739 39.114 158.293 38.1765 158.293 36.9673C158.293 35.2841 156.93 33.9418 155.012 33.9418C153.1 33.9418 151.646 35.2415 151.646 37.1591H152.903C152.903 35.918 153.707 35.0923 154.969 35.0923C156.152 35.0923 157.057 35.8168 157.057 36.9673C157.057 37.9741 156.466 38.7198 155.204 40.0994L151.603 44.0412V45ZM164.52 34.0909H163.199L160.472 35.902V37.2443L163.135 35.4759H163.199V45H164.52V34.0909Z" fill="#718EBF"/>
<path d="M512.773 25C512.341 22.6136 510.432 21.2045 508.091 21.2045C505.114 21.2045 502.955 23.5 502.955 27.1818C502.955 30.8636 505.114 33.1591 508.091 33.1591C510.432 33.1591 512.341 31.75 512.773 29.3636H511.364C511.023 30.9773 509.636 31.8409 508.091 31.8409C505.977 31.8409 504.318 30.2045 504.318 27.1818C504.318 24.1591 505.977 22.5227 508.091 22.5227C509.636 22.5227 511.023 23.3864 511.364 25H512.773ZM518.413 33.1818C520.777 33.1818 522.368 31.3864 522.368 28.6818C522.368 25.9545 520.777 24.1591 518.413 24.1591C516.05 24.1591 514.459 25.9545 514.459 28.6818C514.459 31.3864 516.05 33.1818 518.413 33.1818ZM518.413 31.9773C516.618 31.9773 515.8 30.4318 515.8 28.6818C515.8 26.9318 516.618 25.3636 518.413 25.3636C520.209 25.3636 521.027 26.9318 521.027 28.6818C521.027 30.4318 520.209 31.9773 518.413 31.9773ZM524.415 33H525.756V27.5455C525.756 26.267 526.688 25.3636 527.733 25.3636C528.75 25.3636 529.46 26.0284 529.46 27.0227V33H530.824V27.3182C530.824 26.1932 531.528 25.3636 532.756 25.3636C533.71 25.3636 534.528 25.8693 534.528 27.1591V33H535.869V27.1591C535.869 25.108 534.767 24.1591 533.21 24.1591C531.96 24.1591 531.045 24.733 530.597 25.6364H530.506C530.074 24.7045 529.312 24.1591 528.165 24.1591C527.028 24.1591 526.188 24.7045 525.824 25.6364H525.71V24.2727H524.415V33ZM538.321 36.2727H539.662V31.6591H539.776C540.071 32.1364 540.639 33.1818 542.321 33.1818C544.503 33.1818 546.026 31.4318 546.026 28.6591C546.026 25.9091 544.503 24.1591 542.298 24.1591C540.594 24.1591 540.071 25.2045 539.776 25.6591H539.616V24.2727H538.321V36.2727ZM539.639 28.6364C539.639 26.6818 540.503 25.3636 542.139 25.3636C543.844 25.3636 544.685 26.7955 544.685 28.6364C544.685 30.5 543.821 31.9773 542.139 31.9773C540.526 31.9773 539.639 30.6136 539.639 28.6364ZM549.412 21.3636H548.071V33H549.412V21.3636ZM555.527 33.1818C557.3 33.1818 558.595 32.2955 559.004 30.9773L557.709 30.6136C557.368 31.5227 556.578 31.9773 555.527 31.9773C553.953 31.9773 552.868 30.9602 552.805 29.0909H559.141V28.5227C559.141 25.2727 557.209 24.1591 555.391 24.1591C553.027 24.1591 551.459 26.0227 551.459 28.7045C551.459 31.3864 553.004 33.1818 555.527 33.1818ZM552.805 27.9318C552.896 26.5739 553.857 25.3636 555.391 25.3636C556.845 25.3636 557.777 26.4545 557.777 27.9318H552.805ZM564.976 24.2727H563.112V22.1818H561.771V24.2727H560.453V25.4091H561.771V30.8636C561.771 32.3864 562.999 33.1136 564.135 33.1136C564.635 33.1136 564.953 33.0227 565.135 32.9545L564.862 31.75C564.749 31.7727 564.567 31.8182 564.271 31.8182C563.68 31.8182 563.112 31.6364 563.112 30.5V25.4091H564.976V24.2727ZM570.558 33.1818C572.331 33.1818 573.626 32.2955 574.036 30.9773L572.74 30.6136C572.399 31.5227 571.609 31.9773 570.558 31.9773C568.984 31.9773 567.899 30.9602 567.837 29.0909H574.172V28.5227C574.172 25.2727 572.24 24.1591 570.422 24.1591C568.058 24.1591 566.49 26.0227 566.49 28.7045C566.49 31.3864 568.036 33.1818 570.558 33.1818ZM567.837 27.9318C567.928 26.5739 568.888 25.3636 570.422 25.3636C571.876 25.3636 572.808 26.4545 572.808 27.9318H567.837ZM579.507 33.1818C581.189 33.1818 581.757 32.1364 582.053 31.6591H582.212V33H583.507V21.3636H582.166V25.6591H582.053C581.757 25.2045 581.234 24.1591 579.53 24.1591C577.325 24.1591 575.803 25.9091 575.803 28.6591C575.803 31.4318 577.325 33.1818 579.507 33.1818ZM579.689 31.9773C578.007 31.9773 577.143 30.5 577.143 28.6364C577.143 26.7955 577.984 25.3636 579.689 25.3636C581.325 25.3636 582.189 26.6818 582.189 28.6364C582.189 30.6136 581.303 31.9773 579.689 31.9773Z" fill="#718EBF"/>
<path d="M387.295 21.3636H385.886L382.977 23.2955V24.7273L385.818 22.8409H385.886V33H387.295V21.3636ZM390.642 33H397.983V31.75H392.574V31.6591L395.188 28.8636C397.188 26.7216 397.778 25.7216 397.778 24.4318C397.778 22.6364 396.324 21.2045 394.278 21.2045C392.239 21.2045 390.688 22.5909 390.688 24.6364H392.028C392.028 23.3125 392.886 22.4318 394.233 22.4318C395.494 22.4318 396.46 23.2045 396.46 24.4318C396.46 25.5057 395.83 26.3011 394.483 27.7727L390.642 31.9773V33ZM404.261 33.1591C406.517 33.1591 408.193 31.7443 408.193 29.8409C408.193 28.3636 407.318 27.2898 405.852 27.0455V26.9545C407.028 26.5966 407.761 25.6307 407.761 24.3182C407.761 22.6705 406.46 21.2045 404.307 21.2045C402.295 21.2045 400.625 22.4432 400.557 24.2727H401.92C401.972 23.1136 403.074 22.4318 404.284 22.4318C405.568 22.4318 406.398 23.2102 406.398 24.3864C406.398 25.6136 405.438 26.4091 404.057 26.4091H403.125V27.6591H404.057C405.824 27.6591 406.807 28.5568 406.807 29.8409C406.807 31.0739 405.733 31.9091 404.239 31.9091C402.892 31.9091 401.824 31.2159 401.739 30.0909H400.307C400.392 31.9205 402.006 33.1591 404.261 33.1591ZM410.244 30.6136H415.722V33H417.062V30.6136H418.653V29.3636H417.062V21.3636H415.358L410.244 29.4545V30.6136ZM415.722 29.3636H411.767V29.2727L415.631 23.1591H415.722V29.3636ZM427.533 27.9091H428.624L428.533 25.4091L430.646 26.75L431.192 25.7955L428.964 24.6364L431.192 23.4773L430.646 22.5227L428.533 23.8636L428.624 21.3636H427.533L427.624 23.8636L425.51 22.5227L424.964 23.4773L427.192 24.6364L424.964 25.7955L425.51 26.75L427.624 25.4091L427.533 27.9091ZM435.533 27.9091H436.624L436.533 25.4091L438.646 26.75L439.192 25.7955L436.964 24.6364L439.192 23.4773L438.646 22.5227L436.533 23.8636L436.624 21.3636H435.533L435.624 23.8636L433.51 22.5227L432.964 23.4773L435.192 24.6364L432.964 25.7955L433.51 26.75L435.624 25.4091L435.533 27.9091ZM443.533 27.9091H444.624L444.533 25.4091L446.646 26.75L447.192 25.7955L444.964 24.6364L447.192 23.4773L446.646 22.5227L444.533 23.8636L444.624 21.3636H443.533L443.624 23.8636L441.51 22.5227L440.964 23.4773L443.192 24.6364L440.964 25.7955L441.51 26.75L443.624 25.4091L443.533 27.9091ZM451.533 27.9091H452.624L452.533 25.4091L454.646 26.75L455.192 25.7955L452.964 24.6364L455.192 23.4773L454.646 22.5227L452.533 23.8636L452.624 21.3636H451.533L451.624 23.8636L449.51 22.5227L448.964 23.4773L451.192 24.6364L448.964 25.7955L449.51 26.75L451.624 25.4091L451.533 27.9091Z" fill="#718EBF"/>
<path d="M267.773 22.6136H271.432V33H272.841V22.6136H276.5V21.3636H267.773V22.6136ZM277.587 33H278.928V27.4773C278.928 26.2955 279.859 25.4318 281.132 25.4318C281.49 25.4318 281.859 25.5 281.95 25.5227V24.1591C281.797 24.1477 281.445 24.1364 281.246 24.1364C280.2 24.1364 279.291 24.7273 278.973 25.5909H278.882V24.2727H277.587V33ZM286.108 33.2045C287.631 33.2045 288.426 32.3864 288.699 31.8182H288.767V33H290.108V27.25C290.108 24.4773 287.994 24.1591 286.881 24.1591C285.562 24.1591 284.062 24.6136 283.381 26.2045L284.653 26.6591C284.949 26.0227 285.648 25.3409 286.926 25.3409C288.159 25.3409 288.767 25.9943 288.767 27.1136V27.1591C288.767 27.8068 288.108 27.75 286.517 27.9545C284.898 28.1648 283.131 28.5227 283.131 30.5227C283.131 32.2273 284.449 33.2045 286.108 33.2045ZM286.312 32C285.244 32 284.472 31.5227 284.472 30.5909C284.472 29.5682 285.403 29.25 286.449 29.1136C287.017 29.0455 288.54 28.8864 288.767 28.6136V29.8409C288.767 30.9318 287.903 32 286.312 32ZM293.896 27.75C293.896 26.2273 294.839 25.3636 296.124 25.3636C297.368 25.3636 298.124 26.1761 298.124 27.5455V33H299.464V27.4545C299.464 25.2273 298.277 24.1591 296.51 24.1591C295.192 24.1591 294.374 24.75 293.964 25.6364H293.851V24.2727H292.555V33H293.896V27.75ZM308.097 26.2273C307.676 24.9886 306.733 24.1591 305.006 24.1591C303.165 24.1591 301.801 25.2045 301.801 26.6818C301.801 27.8864 302.517 28.6932 304.119 29.0682L305.574 29.4091C306.455 29.6136 306.869 30.0341 306.869 30.6364C306.869 31.3864 306.074 32 304.824 32C303.727 32 303.04 31.5284 302.801 30.5909L301.528 30.9091C301.841 32.392 303.062 33.1818 304.847 33.1818C306.875 33.1818 308.256 32.0739 308.256 30.5682C308.256 29.3523 307.494 28.5852 305.938 28.2045L304.642 27.8864C303.608 27.6307 303.142 27.2841 303.142 26.6136C303.142 25.8636 303.938 25.3182 305.006 25.3182C306.176 25.3182 306.659 25.9659 306.892 26.5682L308.097 26.2273ZM314.161 24.2727H312.206V23.3864C312.206 22.5227 312.57 22.0682 313.456 22.0682C313.842 22.0682 314.07 22.1591 314.206 22.2045L314.592 21.0455C314.388 20.9545 313.979 20.8182 313.32 20.8182C312.07 20.8182 310.865 21.5682 310.865 23.0682V24.2727H309.456V25.4091H310.865V33H312.206V25.4091H314.161V24.2727ZM319.339 33.1818C321.112 33.1818 322.408 32.2955 322.817 30.9773L321.521 30.6136C321.18 31.5227 320.391 31.9773 319.339 31.9773C317.766 31.9773 316.68 30.9602 316.618 29.0909H322.953V28.5227C322.953 25.2727 321.021 24.1591 319.203 24.1591C316.839 24.1591 315.271 26.0227 315.271 28.7045C315.271 31.3864 316.817 33.1818 319.339 33.1818ZM316.618 27.9318C316.709 26.5739 317.669 25.3636 319.203 25.3636C320.658 25.3636 321.589 26.4545 321.589 27.9318H316.618ZM324.993 33H326.334V27.4773C326.334 26.2955 327.266 25.4318 328.538 25.4318C328.896 25.4318 329.266 25.5 329.357 25.5227V24.1591C329.203 24.1477 328.851 24.1364 328.652 24.1364C327.607 24.1364 326.697 24.7273 326.379 25.5909H326.288V24.2727H324.993V33Z" fill="#718EBF"/>
<path d="M634.141 31.0455H635.669V27.9659H638.749V26.4375H635.669V23.3636H634.141V26.4375H631.067V27.9659H634.141V31.0455ZM644.859 34.4545H645.928L645.933 33.1761C648.337 33 649.712 31.625 649.712 29.7841C649.712 27.6875 647.842 26.875 646.365 26.5114L645.95 26.4034L645.962 22.7557C647.024 22.8977 647.751 23.4886 647.859 24.4205H649.553C649.507 22.6875 648.075 21.392 645.967 21.2216L645.973 19.9091H644.905L644.899 21.233C642.859 21.4375 641.365 22.7102 641.365 24.5455C641.365 26.1648 642.524 27.1136 644.393 27.6193L644.882 27.75L644.871 31.6193C643.763 31.483 642.905 30.8807 642.814 29.7841H641.053C641.161 31.7443 642.575 33.0057 644.865 33.1761L644.859 34.4545ZM645.939 31.6193L645.95 28.0455C647.104 28.3636 647.973 28.7841 647.973 29.767C647.973 30.7614 647.143 31.4602 645.939 31.6193ZM644.888 26.1193C644.041 25.8693 643.109 25.4205 643.115 24.4432C643.115 23.5909 643.791 22.9261 644.893 22.7614L644.888 26.1193ZM652.043 33H653.878L658.94 22.9205V21.3636H651.247V22.8693H657.122V22.9545L652.043 33ZM664.614 33.1591C667.034 33.1591 668.744 31.7841 668.756 29.8977C668.744 28.4318 667.716 27.1989 666.415 26.9659V26.8977C667.545 26.625 668.312 25.5625 668.324 24.3068C668.312 22.5284 666.744 21.2045 664.614 21.2045C662.46 21.2045 660.892 22.5284 660.903 24.3068C660.892 25.5568 661.659 26.625 662.812 26.8977V26.9659C661.489 27.1989 660.46 28.4318 660.472 29.8977C660.46 31.7841 662.17 33.1591 664.614 33.1591ZM664.614 31.7216C663.159 31.7216 662.239 30.9489 662.25 29.7841C662.239 28.5739 663.239 27.7102 664.614 27.7102C665.966 27.7102 666.966 28.5739 666.977 29.7841C666.966 30.9489 666.051 31.7216 664.614 31.7216ZM664.614 26.3068C663.438 26.3068 662.602 25.5625 662.614 24.4545C662.602 23.3636 663.409 22.642 664.614 22.642C665.795 22.642 666.602 23.3636 666.614 24.4545C666.602 25.5625 665.773 26.3068 664.614 26.3068ZM674.842 33.1932C677.53 33.1932 679.104 31 679.104 27.1875C679.104 23.4034 677.507 21.2045 674.842 21.2045C672.172 21.2045 670.581 23.3977 670.575 27.1875C670.575 30.9943 672.149 33.1875 674.842 33.1932ZM674.842 31.6761C673.268 31.6761 672.32 30.0966 672.32 27.1875C672.325 24.2898 673.274 22.6932 674.842 22.6932C676.405 22.6932 677.359 24.2898 677.359 27.1875C677.359 30.0966 676.411 31.6761 674.842 31.6761Z" fill="#16DBAA"/>
<rect width="55" height="55" rx="20" fill="#FFE0EB"/>
<g clip-path="url(#clip0_105_395)">
<path d="M36.3389 31.1611C34.9774 29.7997 33.3569 28.7918 31.5888 28.1817C33.4825 26.8775 34.7266 24.6947 34.7266 22.2266C34.7266 18.2418 31.4847 15 27.5 15C23.5153 15 20.2734 18.2418 20.2734 22.2266C20.2734 24.6947 21.5175 26.8775 23.4112 28.1817C21.6432 28.7918 20.0227 29.7997 18.6612 31.1611C16.3002 33.5221 15 36.6611 15 40H16.9531C16.9531 34.1844 21.6844 29.4531 27.5 29.4531C33.3156 29.4531 38.0469 34.1844 38.0469 40H40C40 36.6611 38.6998 33.5221 36.3389 31.1611ZM27.5 27.5C24.5922 27.5 22.2266 25.1344 22.2266 22.2266C22.2266 19.3187 24.5922 16.9531 27.5 16.9531C30.4078 16.9531 32.7734 19.3187 32.7734 22.2266C32.7734 25.1344 30.4078 27.5 27.5 27.5Z" fill="#FF82AC"/>
</g>
<defs>
<clipPath id="clip0_105_395">
<rect width="25" height="25" fill="white" transform="translate(15 15)"/>
</clipPath>
</defs>
</svg>
