<svg width="300" height="60" viewBox="0 0 300 60" fill="none" xmlns="http://www.w3.org/2000/svg">
<rect width="60" height="60" rx="20" fill="#FFF5D9"/>
<path d="M81.2784 11.3636V23H82.9489V14.5739H83.0568L86.4886 22.983H87.875L91.3068 14.5795H91.4148V23H93.0852V11.3636H90.9545L87.25 20.4091H87.1136L83.4091 11.3636H81.2784ZM95.5014 23H97.2003V14.2727H95.5014V23ZM96.3594 12.9261C96.9446 12.9261 97.4332 12.4716 97.4332 11.9148C97.4332 11.358 96.9446 10.8977 96.3594 10.8977C95.7685 10.8977 95.2855 11.358 95.2855 11.9148C95.2855 12.4716 95.7685 12.9261 96.3594 12.9261ZM103.162 23.1761C105.224 23.1761 106.56 21.9375 106.747 20.2386H105.094C104.878 21.1818 104.145 21.7386 103.173 21.7386C101.736 21.7386 100.81 20.5398 100.81 18.6364C100.81 16.767 101.753 15.5909 103.173 15.5909C104.253 15.5909 104.912 16.2727 105.094 17.0909H106.747C106.565 15.3295 105.128 14.1591 103.145 14.1591C100.685 14.1591 99.0938 16.0114 99.0938 18.6761C99.0938 21.3068 100.628 23.1761 103.162 23.1761ZM110.263 17.8182C110.263 16.4261 111.143 15.6307 112.354 15.6307C113.524 15.6307 114.223 16.375 114.223 17.6534V23H115.922V17.4489C115.922 15.2727 114.729 14.1591 112.933 14.1591C111.575 14.1591 110.757 14.75 110.348 15.6932H110.24V11.3636H108.564V23H110.263V17.8182ZM120.729 23.1932C122.172 23.1932 122.984 22.4602 123.308 21.8068H123.376V23H125.036V17.2045C125.036 14.6648 123.036 14.1591 121.649 14.1591C120.07 14.1591 118.615 14.7955 118.047 16.3864L119.643 16.75C119.893 16.1307 120.53 15.5341 121.672 15.5341C122.768 15.5341 123.331 16.108 123.331 17.0966V17.1364C123.331 17.7557 122.695 17.7443 121.126 17.9261C119.473 18.1193 117.78 18.5511 117.78 20.5341C117.78 22.25 119.07 23.1932 120.729 23.1932ZM121.098 21.8295C120.138 21.8295 119.445 21.3977 119.445 20.5568C119.445 19.6477 120.251 19.3239 121.234 19.1932C121.786 19.1193 123.092 18.9716 123.337 18.7273V19.8523C123.337 20.8864 122.513 21.8295 121.098 21.8295ZM131.06 23.1761C132.963 23.1761 134.31 22.2386 134.696 20.8182L133.088 20.5284C132.781 21.3523 132.043 21.7727 131.077 21.7727C129.622 21.7727 128.645 20.8295 128.599 19.1477H134.804V18.5455C134.804 15.392 132.918 14.1591 130.94 14.1591C128.509 14.1591 126.906 16.0114 126.906 18.6932C126.906 21.4034 128.486 23.1761 131.06 23.1761ZM128.605 17.875C128.673 16.6364 129.571 15.5625 130.952 15.5625C132.27 15.5625 133.134 16.5398 133.139 17.875H128.605ZM138.388 11.3636H136.689V23H138.388V11.3636Z" fill="#B1B1B1"/>
<path d="M81.1293 48H88.0114V46.8281H82.9403V46.7429L85.3906 44.1222C87.2656 42.114 87.8196 41.1765 87.8196 39.9673C87.8196 38.2841 86.456 36.9418 84.5384 36.9418C82.6261 36.9418 81.1719 38.2415 81.1719 40.1591H82.429C82.429 38.918 83.2333 38.0923 84.4957 38.0923C85.6783 38.0923 86.5838 38.8168 86.5838 39.9673C86.5838 40.9741 85.9925 41.7198 84.7301 43.0994L81.1293 47.0412V48ZM97.5408 48.1705C99.1175 48.1705 99.6502 47.1903 99.9272 46.7429H100.076V48H101.291V37.0909H100.034V41.1179H99.9272C99.6502 40.6918 99.1602 39.7116 97.5621 39.7116C95.4954 39.7116 94.0678 41.3523 94.0678 43.9304C94.0678 46.5298 95.4954 48.1705 97.5408 48.1705ZM97.7113 47.0412C96.1346 47.0412 95.3249 45.6562 95.3249 43.9091C95.3249 42.1832 96.1133 40.8409 97.7113 40.8409C99.2454 40.8409 100.055 42.0767 100.055 43.9091C100.055 45.7628 99.2241 47.0412 97.7113 47.0412ZM106.175 48.1918C107.603 48.1918 108.349 47.4247 108.604 46.892H108.668V48H109.925V42.6094C109.925 40.0099 107.944 39.7116 106.9 39.7116C105.664 39.7116 104.258 40.1378 103.619 41.6293L104.812 42.0554C105.089 41.4588 105.744 40.8196 106.942 40.8196C108.098 40.8196 108.668 41.4322 108.668 42.4815V42.5241C108.668 43.1314 108.05 43.0781 106.559 43.2699C105.041 43.467 103.384 43.8026 103.384 45.6776C103.384 47.2756 104.62 48.1918 106.175 48.1918ZM106.367 47.0625C105.366 47.0625 104.641 46.6151 104.641 45.7415C104.641 44.7827 105.515 44.4844 106.495 44.3565C107.028 44.2926 108.455 44.1435 108.668 43.8878V45.0384C108.668 46.0611 107.859 47.0625 106.367 47.0625ZM112.737 51.0682C113.871 51.0682 114.67 50.4663 115.144 49.1932L118.628 39.8395L117.254 39.8182L114.995 46.3381H114.91L112.651 39.8182H111.288L114.313 48.0426L114.079 48.6818C113.621 49.9283 113.056 50.0455 112.14 49.8111L111.82 50.919C111.948 50.983 112.31 51.0682 112.737 51.0682ZM126.087 41.6506C125.692 40.4893 124.808 39.7116 123.189 39.7116C121.463 39.7116 120.185 40.6918 120.185 42.0767C120.185 43.206 120.856 43.9624 122.358 44.3139L123.722 44.6335C124.547 44.8253 124.936 45.2195 124.936 45.7841C124.936 46.4872 124.19 47.0625 123.018 47.0625C121.99 47.0625 121.346 46.6204 121.122 45.7415L119.929 46.0398C120.222 47.43 121.367 48.1705 123.04 48.1705C124.941 48.1705 126.236 47.1317 126.236 45.7202C126.236 44.5803 125.522 43.8612 124.062 43.5043L122.848 43.206C121.879 42.9663 121.442 42.6413 121.442 42.0128C121.442 41.3097 122.188 40.7983 123.189 40.7983C124.286 40.7983 124.739 41.4055 124.957 41.9702L126.087 41.6506ZM134.755 48.1918C136.182 48.1918 136.928 47.4247 137.184 46.892H137.247V48H138.505V42.6094C138.505 40.0099 136.523 39.7116 135.479 39.7116C134.243 39.7116 132.837 40.1378 132.198 41.6293L133.391 42.0554C133.668 41.4588 134.323 40.8196 135.522 40.8196C136.677 40.8196 137.247 41.4322 137.247 42.4815V42.5241C137.247 43.1314 136.63 43.0781 135.138 43.2699C133.62 43.467 131.963 43.8026 131.963 45.6776C131.963 47.2756 133.199 48.1918 134.755 48.1918ZM134.946 47.0625C133.945 47.0625 133.22 46.6151 133.22 45.7415C133.22 44.7827 134.094 44.4844 135.074 44.3565C135.607 44.2926 137.034 44.1435 137.247 43.8878V45.0384C137.247 46.0611 136.438 47.0625 134.946 47.0625ZM144.102 51.2386C146.062 51.2386 147.638 50.3438 147.638 48.2344V39.8182H146.424V41.1179H146.296C146.019 40.6918 145.508 39.7116 143.91 39.7116C141.843 39.7116 140.415 41.3523 140.415 43.8665C140.415 46.4233 141.907 47.8722 143.888 47.8722C145.487 47.8722 145.998 46.9347 146.275 46.4872H146.381V48.1491C146.381 49.5128 145.423 50.1307 144.102 50.1307C142.615 50.1307 142.093 49.3477 141.758 48.8949L140.756 49.598C141.268 50.4556 142.275 51.2386 144.102 51.2386ZM144.059 46.7429C142.482 46.7429 141.673 45.5497 141.673 43.8452C141.673 42.1832 142.461 40.8409 144.059 40.8409C145.593 40.8409 146.403 42.0767 146.403 43.8452C146.403 45.6562 145.572 46.7429 144.059 46.7429ZM153.263 48.1705C155.479 48.1705 156.971 46.4872 156.971 43.9517C156.971 41.3949 155.479 39.7116 153.263 39.7116C151.048 39.7116 149.556 41.3949 149.556 43.9517C149.556 46.4872 151.048 48.1705 153.263 48.1705ZM153.263 47.0412C151.58 47.0412 150.813 45.5923 150.813 43.9517C150.813 42.3111 151.58 40.8409 153.263 40.8409C154.947 40.8409 155.714 42.3111 155.714 43.9517C155.714 45.5923 154.947 47.0412 153.263 47.0412Z" fill="#718EBF"/>
<path d="M267.011 37.4545H267.943V36.1875C270.33 36.0227 271.67 34.6136 271.67 32.8409C271.67 30.6591 269.602 29.9545 268.398 29.6364L267.943 29.5114V25.4716C269.148 25.5909 270.023 26.2386 270.148 27.2727H271.511C271.455 25.6136 270 24.3523 267.943 24.2159V22.9091H267.011V24.233C265.062 24.4318 263.602 25.6705 263.602 27.4545C263.602 29.0227 264.739 29.9545 266.557 30.4773L267.011 30.608V34.9091C265.818 34.7841 264.841 34.1705 264.739 33H263.284C263.415 34.7898 264.778 36.0398 267.011 36.1875V37.4545ZM267.943 34.9091V30.875L267.989 30.8864C269.216 31.2273 270.307 31.6591 270.307 32.8182C270.307 33.9602 269.318 34.7557 267.943 34.9091ZM267.011 29.2614C266.148 29.017 264.966 28.5398 264.966 27.3864C264.966 26.4034 265.761 25.6534 267.011 25.4886V29.2614ZM277.874 24.3636H276.464L273.555 26.2955V27.7273L276.396 25.8409H276.464V36H277.874V24.3636ZM285.084 36.1591C287.436 36.1875 288.97 34.4148 288.97 32.25C288.97 30 287.305 28.3864 285.311 28.3864C284.112 28.3864 283.084 28.9716 282.447 29.9318H282.357C282.362 27.0966 283.464 25.4545 285.266 25.4545C286.493 25.4545 287.232 26.2273 287.493 27.2727H288.879C288.595 25.4659 287.22 24.2045 285.266 24.2045C282.646 24.2045 281.038 26.5227 281.038 30.6364C281.038 34.9375 283.175 36.1364 285.084 36.1591ZM285.084 34.9091C283.624 34.9091 282.555 33.6648 282.561 32.2727C282.567 30.8807 283.686 29.6364 285.129 29.6364C286.555 29.6364 287.607 30.8068 287.607 32.25C287.607 33.7273 286.51 34.9091 285.084 34.9091ZM295 36.1591C297.568 36.1591 299.045 33.983 299.045 30.1818C299.045 26.4091 297.545 24.2045 295 24.2045C292.455 24.2045 290.955 26.4091 290.955 30.1818C290.955 33.983 292.432 36.1591 295 36.1591ZM295 34.9091C293.307 34.9091 292.318 33.2102 292.318 30.1818C292.318 27.1591 293.318 25.4318 295 25.4318C296.682 25.4318 297.682 27.1591 297.682 30.1818C297.682 33.2102 296.693 34.9091 295 34.9091Z" fill="#718EBF"/>
<g clip-path="url(#clip0_101_296)">
<path d="M39.3389 34.1611C37.9774 32.7997 36.3569 31.7918 34.5888 31.1817C36.4825 29.8775 37.7266 27.6947 37.7266 25.2266C37.7266 21.2418 34.4847 18 30.5 18C26.5153 18 23.2734 21.2418 23.2734 25.2266C23.2734 27.6947 24.5175 29.8775 26.4112 31.1817C24.6432 31.7918 23.0227 32.7997 21.6612 34.1611C19.3002 36.5221 18 39.6611 18 43H19.9531C19.9531 37.1844 24.6844 32.4531 30.5 32.4531C36.3156 32.4531 41.0469 37.1844 41.0469 43H43C43 39.6611 41.6998 36.5221 39.3389 34.1611ZM30.5 30.5C27.5922 30.5 25.2266 28.1344 25.2266 25.2266C25.2266 22.3187 27.5922 19.9531 30.5 19.9531C33.4078 19.9531 35.7734 22.3187 35.7734 25.2266C35.7734 28.1344 33.4078 30.5 30.5 30.5Z" fill="#FFBB38"/>
</g>
<defs>
<clipPath id="clip0_101_296">
<rect width="25" height="25" fill="white" transform="translate(18 18)"/>
</clipPath>
</defs>
</svg>
