<svg width="680" height="55" viewBox="0 0 680 55" fill="none" xmlns="http://www.w3.org/2000/svg">
<path d="M81.2784 8.36364V20H82.9489V11.5739H83.0568L86.4886 19.983H87.875L91.3068 11.5795H91.4148V20H93.0852V8.36364H90.9545L87.25 17.4091H87.1136L83.4091 8.36364H81.2784ZM99.1776 20.1761C101.638 20.1761 103.246 18.375 103.246 15.6761C103.246 12.9602 101.638 11.1591 99.1776 11.1591C96.7173 11.1591 95.1094 12.9602 95.1094 15.6761C95.1094 18.375 96.7173 20.1761 99.1776 20.1761ZM99.1832 18.75C97.5753 18.75 96.8253 17.3466 96.8253 15.6705C96.8253 14 97.5753 12.5795 99.1832 12.5795C100.78 12.5795 101.53 14 101.53 15.6705C101.53 17.3466 100.78 18.75 99.1832 18.75ZM105.278 20H106.938V18.642H107.08C107.386 19.1989 108.011 20.1705 109.602 20.1705C111.716 20.1705 113.25 18.4773 113.25 15.6534C113.25 12.8239 111.693 11.1591 109.585 11.1591C107.966 11.1591 107.381 12.1477 107.08 12.6875H106.977V8.36364H105.278V20ZM106.943 15.6364C106.943 13.8125 107.739 12.6023 109.222 12.6023C110.761 12.6023 111.534 13.9034 111.534 15.6364C111.534 17.3864 110.739 18.7216 109.222 18.7216C107.761 18.7216 106.943 17.4716 106.943 15.6364ZM115.158 20H116.857V11.2727H115.158V20ZM116.016 9.92614C116.601 9.92614 117.089 9.47159 117.089 8.91477C117.089 8.35795 116.601 7.89773 116.016 7.89773C115.425 7.89773 114.942 8.35795 114.942 8.91477C114.942 9.47159 115.425 9.92614 116.016 9.92614ZM120.841 8.36364H119.142V20H120.841V8.36364ZM126.888 20.1761C128.791 20.1761 130.138 19.2386 130.524 17.8182L128.916 17.5284C128.609 18.3523 127.871 18.7727 126.905 18.7727C125.45 18.7727 124.473 17.8295 124.428 16.1477H130.632V15.5455C130.632 12.392 128.746 11.1591 126.768 11.1591C124.337 11.1591 122.734 13.0114 122.734 15.6932C122.734 18.4034 124.314 20.1761 126.888 20.1761ZM124.433 14.875C124.501 13.6364 125.399 12.5625 126.78 12.5625C128.098 12.5625 128.962 13.5398 128.967 14.875H124.433ZM143.234 11.4205H144.928C144.876 9.55682 143.229 8.20455 140.865 8.20455C138.53 8.20455 136.74 9.53977 136.74 11.5455C136.74 13.1648 137.899 14.1136 139.768 14.6193L141.143 14.9943C142.388 15.3239 143.348 15.733 143.348 16.767C143.348 17.9034 142.263 18.6534 140.768 18.6534C139.416 18.6534 138.291 18.0511 138.189 16.7841H136.428C136.541 18.892 138.172 20.1932 140.78 20.1932C143.513 20.1932 145.087 18.7557 145.087 16.7841C145.087 14.6875 143.217 13.875 141.74 13.5114L140.604 13.2159C139.695 12.983 138.484 12.5568 138.49 11.4432C138.49 10.4545 139.393 9.72159 140.825 9.72159C142.161 9.72159 143.109 10.3466 143.234 11.4205ZM150.81 20.1761C152.713 20.1761 154.06 19.2386 154.446 17.8182L152.838 17.5284C152.531 18.3523 151.793 18.7727 150.827 18.7727C149.372 18.7727 148.395 17.8295 148.349 16.1477H154.554V15.5455C154.554 12.392 152.668 11.1591 150.69 11.1591C148.259 11.1591 146.656 13.0114 146.656 15.6932C146.656 18.4034 148.236 20.1761 150.81 20.1761ZM148.355 14.875C148.423 13.6364 149.321 12.5625 150.702 12.5625C152.02 12.5625 152.884 13.5398 152.889 14.875H148.355ZM156.439 20H158.138V14.6705C158.138 13.5284 159.018 12.7045 160.223 12.7045C160.575 12.7045 160.973 12.767 161.109 12.8068V11.1818C160.939 11.1591 160.604 11.142 160.388 11.142C159.365 11.142 158.49 11.7216 158.172 12.6591H158.081V11.2727H156.439V20ZM170.311 11.2727H168.487L166.283 17.9886H166.192L163.982 11.2727H162.158L165.328 20H167.146L170.311 11.2727ZM171.908 20H173.607V11.2727H171.908V20ZM172.766 9.92614C173.351 9.92614 173.839 9.47159 173.839 8.91477C173.839 8.35795 173.351 7.89773 172.766 7.89773C172.175 7.89773 171.692 8.35795 171.692 8.91477C171.692 9.47159 172.175 9.92614 172.766 9.92614ZM179.568 20.1761C181.631 20.1761 182.966 18.9375 183.153 17.2386H181.5C181.284 18.1818 180.551 18.7386 179.58 18.7386C178.142 18.7386 177.216 17.5398 177.216 15.6364C177.216 13.767 178.159 12.5909 179.58 12.5909C180.659 12.5909 181.318 13.2727 181.5 14.0909H183.153C182.972 12.3295 181.534 11.1591 179.551 11.1591C177.091 11.1591 175.5 13.0114 175.5 15.6761C175.5 18.3068 177.034 20.1761 179.568 20.1761ZM188.732 20.1761C190.635 20.1761 191.982 19.2386 192.368 17.8182L190.76 17.5284C190.453 18.3523 189.714 18.7727 188.749 18.7727C187.294 18.7727 186.317 17.8295 186.271 16.1477H192.476V15.5455C192.476 12.392 190.589 11.1591 188.612 11.1591C186.18 11.1591 184.578 13.0114 184.578 15.6932C184.578 18.4034 186.158 20.1761 188.732 20.1761ZM186.277 14.875C186.345 13.6364 187.243 12.5625 188.624 12.5625C189.942 12.5625 190.805 13.5398 190.811 14.875H186.277Z" fill="#232323"/>
<path d="M81.1293 45H88.0114V43.8281H82.9403V43.7429L85.3906 41.1222C87.2656 39.114 87.8196 38.1765 87.8196 36.9673C87.8196 35.2841 86.456 33.9418 84.5384 33.9418C82.6261 33.9418 81.1719 35.2415 81.1719 37.1591H82.429C82.429 35.918 83.2333 35.0923 84.4957 35.0923C85.6783 35.0923 86.5838 35.8168 86.5838 36.9673C86.5838 37.9741 85.9925 38.7198 84.7301 40.0994L81.1293 44.0412V45ZM93.6204 45.1491C95.6978 45.1491 97.2212 43.6151 97.2212 41.527C97.2212 39.4123 95.7511 37.8622 93.7482 37.8622C93.0131 37.8622 92.2994 38.1232 91.8519 38.4801H91.788L92.1715 35.2628H96.7312V34.0909H91.0636L90.4031 39.4602L91.6388 39.6094C92.0916 39.2844 92.864 39.0501 93.5352 39.0554C94.9254 39.0661 95.9428 40.1207 95.9428 41.5483C95.9428 42.9492 94.9627 43.9773 93.6204 43.9773C92.5018 43.9773 91.6122 43.2582 91.511 42.2727H90.2326C90.3125 43.9347 91.7454 45.1491 93.6204 45.1491ZM107.924 34.0909V41.8892C107.924 43.2475 107.274 43.9773 106.134 43.9773C105.095 43.9773 104.344 43.37 104.344 42.4432H103.045C103.045 44.1211 104.344 45.1491 106.134 45.1491C108.03 45.1491 109.245 43.9826 109.245 41.8892V34.0909H107.924ZM114.13 45.1918C115.557 45.1918 116.303 44.4247 116.559 43.892H116.622V45H117.88V39.6094C117.88 37.0099 115.898 36.7116 114.854 36.7116C113.618 36.7116 112.212 37.1378 111.573 38.6293L112.766 39.0554C113.043 38.4588 113.698 37.8196 114.897 37.8196C116.052 37.8196 116.622 38.4322 116.622 39.4815V39.5241C116.622 40.1314 116.005 40.0781 114.513 40.2699C112.995 40.467 111.338 40.8026 111.338 42.6776C111.338 44.2756 112.574 45.1918 114.13 45.1918ZM114.321 44.0625C113.32 44.0625 112.595 43.6151 112.595 42.7415C112.595 41.7827 113.469 41.4844 114.449 41.3565C114.982 41.2926 116.409 41.1435 116.622 40.8878V42.0384C116.622 43.0611 115.813 44.0625 114.321 44.0625ZM121.431 40.0781C121.431 38.6506 122.315 37.8409 123.519 37.8409C124.686 37.8409 125.394 38.6026 125.394 39.8864V45H126.651V39.8011C126.651 37.7131 125.538 36.7116 123.881 36.7116C122.646 36.7116 121.879 37.2656 121.495 38.0966H121.388V36.8182H120.174V45H121.431V40.0781ZM133.146 45H140.028V43.8281H134.957V43.7429L137.407 41.1222C139.282 39.114 139.836 38.1765 139.836 36.9673C139.836 35.2841 138.473 33.9418 136.555 33.9418C134.643 33.9418 133.188 35.2415 133.188 37.1591H134.446C134.446 35.918 135.25 35.0923 136.512 35.0923C137.695 35.0923 138.6 35.8168 138.6 36.9673C138.6 37.9741 138.009 38.7198 136.747 40.0994L133.146 44.0412V45ZM145.786 45.1491C148.194 45.1491 149.579 43.109 149.579 39.5455C149.579 36.0085 148.172 33.9418 145.786 33.9418C143.4 33.9418 141.994 36.0085 141.994 39.5455C141.994 43.109 143.378 45.1491 145.786 45.1491ZM145.786 43.9773C144.199 43.9773 143.272 42.3846 143.272 39.5455C143.272 36.7116 144.209 35.0923 145.786 35.0923C147.363 35.0923 148.3 36.7116 148.3 39.5455C148.3 42.3846 147.373 43.9773 145.786 43.9773ZM151.603 45H158.485V43.8281H153.414V43.7429L155.864 41.1222C157.739 39.114 158.293 38.1765 158.293 36.9673C158.293 35.2841 156.93 33.9418 155.012 33.9418C153.1 33.9418 151.646 35.2415 151.646 37.1591H152.903C152.903 35.918 153.707 35.0923 154.969 35.0923C156.152 35.0923 157.057 35.8168 157.057 36.9673C157.057 37.9741 156.466 38.7198 155.204 40.0994L151.603 44.0412V45ZM164.52 34.0909H163.199L160.472 35.902V37.2443L163.135 35.4759H163.199V45H164.52V34.0909Z" fill="#718EBF"/>
<path d="M512.773 25C512.341 22.6136 510.432 21.2045 508.091 21.2045C505.114 21.2045 502.955 23.5 502.955 27.1818C502.955 30.8636 505.114 33.1591 508.091 33.1591C510.432 33.1591 512.341 31.75 512.773 29.3636H511.364C511.023 30.9773 509.636 31.8409 508.091 31.8409C505.977 31.8409 504.318 30.2045 504.318 27.1818C504.318 24.1591 505.977 22.5227 508.091 22.5227C509.636 22.5227 511.023 23.3864 511.364 25H512.773ZM518.413 33.1818C520.777 33.1818 522.368 31.3864 522.368 28.6818C522.368 25.9545 520.777 24.1591 518.413 24.1591C516.05 24.1591 514.459 25.9545 514.459 28.6818C514.459 31.3864 516.05 33.1818 518.413 33.1818ZM518.413 31.9773C516.618 31.9773 515.8 30.4318 515.8 28.6818C515.8 26.9318 516.618 25.3636 518.413 25.3636C520.209 25.3636 521.027 26.9318 521.027 28.6818C521.027 30.4318 520.209 31.9773 518.413 31.9773ZM524.415 33H525.756V27.5455C525.756 26.267 526.688 25.3636 527.733 25.3636C528.75 25.3636 529.46 26.0284 529.46 27.0227V33H530.824V27.3182C530.824 26.1932 531.528 25.3636 532.756 25.3636C533.71 25.3636 534.528 25.8693 534.528 27.1591V33H535.869V27.1591C535.869 25.108 534.767 24.1591 533.21 24.1591C531.96 24.1591 531.045 24.733 530.597 25.6364H530.506C530.074 24.7045 529.312 24.1591 528.165 24.1591C527.028 24.1591 526.188 24.7045 525.824 25.6364H525.71V24.2727H524.415V33ZM538.321 36.2727H539.662V31.6591H539.776C540.071 32.1364 540.639 33.1818 542.321 33.1818C544.503 33.1818 546.026 31.4318 546.026 28.6591C546.026 25.9091 544.503 24.1591 542.298 24.1591C540.594 24.1591 540.071 25.2045 539.776 25.6591H539.616V24.2727H538.321V36.2727ZM539.639 28.6364C539.639 26.6818 540.503 25.3636 542.139 25.3636C543.844 25.3636 544.685 26.7955 544.685 28.6364C544.685 30.5 543.821 31.9773 542.139 31.9773C540.526 31.9773 539.639 30.6136 539.639 28.6364ZM549.412 21.3636H548.071V33H549.412V21.3636ZM555.527 33.1818C557.3 33.1818 558.595 32.2955 559.004 30.9773L557.709 30.6136C557.368 31.5227 556.578 31.9773 555.527 31.9773C553.953 31.9773 552.868 30.9602 552.805 29.0909H559.141V28.5227C559.141 25.2727 557.209 24.1591 555.391 24.1591C553.027 24.1591 551.459 26.0227 551.459 28.7045C551.459 31.3864 553.004 33.1818 555.527 33.1818ZM552.805 27.9318C552.896 26.5739 553.857 25.3636 555.391 25.3636C556.845 25.3636 557.777 26.4545 557.777 27.9318H552.805ZM564.976 24.2727H563.112V22.1818H561.771V24.2727H560.453V25.4091H561.771V30.8636C561.771 32.3864 562.999 33.1136 564.135 33.1136C564.635 33.1136 564.953 33.0227 565.135 32.9545L564.862 31.75C564.749 31.7727 564.567 31.8182 564.271 31.8182C563.68 31.8182 563.112 31.6364 563.112 30.5V25.4091H564.976V24.2727ZM570.558 33.1818C572.331 33.1818 573.626 32.2955 574.036 30.9773L572.74 30.6136C572.399 31.5227 571.609 31.9773 570.558 31.9773C568.984 31.9773 567.899 30.9602 567.837 29.0909H574.172V28.5227C574.172 25.2727 572.24 24.1591 570.422 24.1591C568.058 24.1591 566.49 26.0227 566.49 28.7045C566.49 31.3864 568.036 33.1818 570.558 33.1818ZM567.837 27.9318C567.928 26.5739 568.888 25.3636 570.422 25.3636C571.876 25.3636 572.808 26.4545 572.808 27.9318H567.837ZM579.507 33.1818C581.189 33.1818 581.757 32.1364 582.053 31.6591H582.212V33H583.507V21.3636H582.166V25.6591H582.053C581.757 25.2045 581.234 24.1591 579.53 24.1591C577.325 24.1591 575.803 25.9091 575.803 28.6591C575.803 31.4318 577.325 33.1818 579.507 33.1818ZM579.689 31.9773C578.007 31.9773 577.143 30.5 577.143 28.6364C577.143 26.7955 577.984 25.3636 579.689 25.3636C581.325 25.3636 582.189 26.6818 582.189 28.6364C582.189 30.6136 581.303 31.9773 579.689 31.9773Z" fill="#718EBF"/>
<path d="M387.295 21.3636H385.886L382.977 23.2955V24.7273L385.818 22.8409H385.886V33H387.295V21.3636ZM390.642 33H397.983V31.75H392.574V31.6591L395.188 28.8636C397.188 26.7216 397.778 25.7216 397.778 24.4318C397.778 22.6364 396.324 21.2045 394.278 21.2045C392.239 21.2045 390.688 22.5909 390.688 24.6364H392.028C392.028 23.3125 392.886 22.4318 394.233 22.4318C395.494 22.4318 396.46 23.2045 396.46 24.4318C396.46 25.5057 395.83 26.3011 394.483 27.7727L390.642 31.9773V33ZM404.261 33.1591C406.517 33.1591 408.193 31.7443 408.193 29.8409C408.193 28.3636 407.318 27.2898 405.852 27.0455V26.9545C407.028 26.5966 407.761 25.6307 407.761 24.3182C407.761 22.6705 406.46 21.2045 404.307 21.2045C402.295 21.2045 400.625 22.4432 400.557 24.2727H401.92C401.972 23.1136 403.074 22.4318 404.284 22.4318C405.568 22.4318 406.398 23.2102 406.398 24.3864C406.398 25.6136 405.438 26.4091 404.057 26.4091H403.125V27.6591H404.057C405.824 27.6591 406.807 28.5568 406.807 29.8409C406.807 31.0739 405.733 31.9091 404.239 31.9091C402.892 31.9091 401.824 31.2159 401.739 30.0909H400.307C400.392 31.9205 402.006 33.1591 404.261 33.1591ZM410.244 30.6136H415.722V33H417.062V30.6136H418.653V29.3636H417.062V21.3636H415.358L410.244 29.4545V30.6136ZM415.722 29.3636H411.767V29.2727L415.631 23.1591H415.722V29.3636ZM427.533 27.9091H428.624L428.533 25.4091L430.646 26.75L431.192 25.7955L428.964 24.6364L431.192 23.4773L430.646 22.5227L428.533 23.8636L428.624 21.3636H427.533L427.624 23.8636L425.51 22.5227L424.964 23.4773L427.192 24.6364L424.964 25.7955L425.51 26.75L427.624 25.4091L427.533 27.9091ZM435.533 27.9091H436.624L436.533 25.4091L438.646 26.75L439.192 25.7955L436.964 24.6364L439.192 23.4773L438.646 22.5227L436.533 23.8636L436.624 21.3636H435.533L435.624 23.8636L433.51 22.5227L432.964 23.4773L435.192 24.6364L432.964 25.7955L433.51 26.75L435.624 25.4091L435.533 27.9091ZM443.533 27.9091H444.624L444.533 25.4091L446.646 26.75L447.192 25.7955L444.964 24.6364L447.192 23.4773L446.646 22.5227L444.533 23.8636L444.624 21.3636H443.533L443.624 23.8636L441.51 22.5227L440.964 23.4773L443.192 24.6364L440.964 25.7955L441.51 26.75L443.624 25.4091L443.533 27.9091ZM451.533 27.9091H452.624L452.533 25.4091L454.646 26.75L455.192 25.7955L452.964 24.6364L455.192 23.4773L454.646 22.5227L452.533 23.8636L452.624 21.3636H451.533L451.624 23.8636L449.51 22.5227L448.964 23.4773L451.192 24.6364L448.964 25.7955L449.51 26.75L451.624 25.4091L451.533 27.9091Z" fill="#718EBF"/>
<path d="M274.773 24.2727H276.136C276.074 22.517 274.455 21.2045 272.205 21.2045C269.977 21.2045 268.227 22.5 268.227 24.4545C268.227 26.0227 269.364 26.9545 271.182 27.4773L272.614 27.8864C273.841 28.2273 274.932 28.6591 274.932 29.8182C274.932 31.0909 273.705 31.9318 272.091 31.9318C270.705 31.9318 269.477 31.3182 269.364 30H267.909C268.045 31.9091 269.591 33.2045 272.091 33.2045C274.773 33.2045 276.295 31.7273 276.295 29.8409C276.295 27.6591 274.227 26.9545 273.023 26.6364L271.841 26.3182C270.977 26.0909 269.591 25.6364 269.591 24.3864C269.591 23.2727 270.614 22.4545 272.159 22.4545C273.568 22.4545 274.636 23.125 274.773 24.2727ZM282.089 33.1818C283.862 33.1818 285.158 32.2955 285.567 30.9773L284.271 30.6136C283.93 31.5227 283.141 31.9773 282.089 31.9773C280.516 31.9773 279.43 30.9602 279.368 29.0909H285.703V28.5227C285.703 25.2727 283.771 24.1591 281.953 24.1591C279.589 24.1591 278.021 26.0227 278.021 28.7045C278.021 31.3864 279.567 33.1818 282.089 33.1818ZM279.368 27.9318C279.459 26.5739 280.419 25.3636 281.953 25.3636C283.408 25.3636 284.339 26.4545 284.339 27.9318H279.368ZM287.743 33H289.084V27.4773C289.084 26.2955 290.016 25.4318 291.288 25.4318C291.646 25.4318 292.016 25.5 292.107 25.5227V24.1591C291.953 24.1477 291.601 24.1364 291.402 24.1364C290.357 24.1364 289.447 24.7273 289.129 25.5909H289.038V24.2727H287.743V33ZM301.098 24.2727H299.643L297.234 31.2273H297.143L294.734 24.2727H293.28L296.507 33H297.871L301.098 24.2727ZM302.868 33H304.209V24.2727H302.868V33ZM303.55 22.8182C304.072 22.8182 304.504 22.4091 304.504 21.9091C304.504 21.4091 304.072 21 303.55 21C303.027 21 302.595 21.4091 302.595 21.9091C302.595 22.4091 303.027 22.8182 303.55 22.8182ZM310.21 33.1818C312.142 33.1818 313.415 32 313.642 30.4545H312.301C312.051 31.4091 311.256 31.9773 310.21 31.9773C308.619 31.9773 307.597 30.6591 307.597 28.6364C307.597 26.6591 308.642 25.3636 310.21 25.3636C311.392 25.3636 312.097 26.0909 312.301 26.8864H313.642C313.415 25.25 312.028 24.1591 310.188 24.1591C307.824 24.1591 306.256 26.0227 306.256 28.6818C306.256 31.2955 307.756 33.1818 310.21 33.1818ZM319.261 33.1818C321.034 33.1818 322.33 32.2955 322.739 30.9773L321.443 30.6136C321.102 31.5227 320.312 31.9773 319.261 31.9773C317.688 31.9773 316.602 30.9602 316.54 29.0909H322.875V28.5227C322.875 25.2727 320.943 24.1591 319.125 24.1591C316.761 24.1591 315.193 26.0227 315.193 28.7045C315.193 31.3864 316.739 33.1818 319.261 33.1818ZM316.54 27.9318C316.631 26.5739 317.591 25.3636 319.125 25.3636C320.58 25.3636 321.511 26.4545 321.511 27.9318H316.54Z" fill="#718EBF"/>
<path d="M637.472 26.4489H632.312V27.9205H637.472V26.4489ZM643.219 34.4545H644.287L644.293 33.1761C646.696 33 648.071 31.625 648.071 29.7841C648.071 27.6875 646.202 26.875 644.724 26.5114L644.31 26.4034L644.321 22.7557C645.384 22.8977 646.111 23.4886 646.219 24.4205H647.912C647.866 22.6875 646.435 21.392 644.327 21.2216L644.332 19.9091H643.264L643.259 21.233C641.219 21.4375 639.724 22.7102 639.724 24.5455C639.724 26.1648 640.884 27.1136 642.753 27.6193L643.241 27.75L643.23 31.6193C642.122 31.483 641.264 30.8807 641.173 29.7841H639.412C639.52 31.7443 640.935 33.0057 643.224 33.1761L643.219 34.4545ZM644.298 31.6193L644.31 28.0455C645.463 28.3636 646.332 28.7841 646.332 29.767C646.332 30.7614 645.503 31.4602 644.298 31.6193ZM643.247 26.1193C642.401 25.8693 641.469 25.4205 641.474 24.4432C641.474 23.5909 642.151 22.9261 643.253 22.7614L643.247 26.1193ZM654.061 33.1591C656.436 33.1591 658.18 31.7386 658.175 29.8068C658.18 28.3352 657.288 27.2784 655.743 27.0398V26.9489C656.959 26.6364 657.749 25.6818 657.743 24.375C657.749 22.6648 656.345 21.2045 654.107 21.2045C651.97 21.2045 650.254 22.4943 650.197 24.3864H651.896C651.936 23.3182 652.942 22.6705 654.084 22.6705C655.271 22.6705 656.05 23.392 656.044 24.4659C656.05 25.5909 655.146 26.3295 653.857 26.3295H652.874V27.7614H653.857C655.47 27.7614 656.402 28.5795 656.402 29.75C656.402 30.8807 655.419 31.6477 654.05 31.6477C652.788 31.6477 651.805 31 651.737 29.9659H649.953C650.027 31.8636 651.709 33.1591 654.061 33.1591ZM660.078 30.7273H665.595V33H667.271V30.7273H668.811V29.2386H667.271V21.3636H665.107L660.078 29.3068V30.7273ZM665.607 29.2386H661.919V29.1477L665.516 23.4545H665.607V29.2386ZM674.842 33.1932C677.53 33.1932 679.104 31 679.104 27.1875C679.104 23.4034 677.507 21.2045 674.842 21.2045C672.172 21.2045 670.581 23.3977 670.575 27.1875C670.575 30.9943 672.149 33.1875 674.842 33.1932ZM674.842 31.6761C673.268 31.6761 672.32 30.0966 672.32 27.1875C672.325 24.2898 673.274 22.6932 674.842 22.6932C676.405 22.6932 677.359 24.2898 677.359 27.1875C677.359 30.0966 676.411 31.6761 674.842 31.6761Z" fill="#FE5C73"/>
<rect width="55" height="55" rx="20" fill="#E7EDFF"/>
<g clip-path="url(#clip0_105_394)">
<path d="M19.209 36.5226C19.6135 36.5226 19.9414 36.1947 19.9414 35.7902C19.9414 35.3857 19.6135 35.0577 19.209 35.0577C18.8045 35.0577 18.4766 35.3857 18.4766 35.7902C18.4766 36.1947 18.8045 36.5226 19.209 36.5226Z" fill="#396AFF"/>
<path d="M34.8337 27.0366C36.1271 26.8463 37.3007 26.2558 38.2275 25.329C39.1099 24.4467 39.6907 23.3328 39.907 22.1078C40.1183 20.9114 39.9697 19.6944 39.4773 18.5886C39.2684 18.1195 38.653 18.0057 38.2903 18.3686L35.2899 21.3689C35.166 21.4927 34.9646 21.4927 34.8407 21.3689L33.6309 20.1592C33.5073 20.0355 33.5073 19.8344 33.6309 19.7107L36.6317 16.71C36.9948 16.347 36.8804 15.7318 36.4117 15.5231C35.3058 15.0306 34.0888 14.882 32.8923 15.0933C31.6673 15.3096 30.5534 15.8904 29.671 16.7728C28.7442 17.6996 28.1536 18.8731 27.9634 20.1665C27.8063 21.2339 27.9316 22.3018 28.3255 23.2884L26.1284 25.0932L21.222 20.1869L22.0852 19.3238C22.3945 19.0145 22.3653 18.5037 22.0221 18.2318L18.7012 15.6015C18.4097 15.3707 17.9914 15.3949 17.7285 15.6578L15.6569 17.7293C15.394 17.9922 15.3698 18.4104 15.6007 18.7019L18.231 22.0226C18.5029 22.3659 19.0134 22.3954 19.3231 22.0858L20.1862 21.2226L24.9911 26.0273L15.972 33.4358C14.7713 34.3855 14.6677 36.1723 15.7499 37.2545L17.745 39.2496C18.8272 40.3316 20.6139 40.2284 21.5639 39.0275L28.9726 30.0087L29.7169 30.753L28.6464 31.8234C28.3712 32.0985 28.3593 32.5407 28.619 32.8303L34.2003 39.0527C35.298 40.2709 37.1915 40.3216 38.3522 39.1609L39.1607 38.3523C40.3239 37.1893 40.2687 35.2821 39.0394 34.1883C39.0388 34.1879 39.0384 34.1874 39.0379 34.187L32.7868 28.6558C32.4969 28.3993 32.0574 28.4126 31.7835 28.6864L30.7526 29.7172L29.9068 28.8715L31.7117 26.6745C32.6983 27.0683 33.7662 27.1936 34.8337 27.0366ZM18.8687 20.4686L17.1539 18.3037L18.303 17.1548L20.4679 18.8695L18.8687 20.4686ZM32.3321 30.2093L38.0662 35.2831C38.3566 35.5416 38.5228 35.898 38.5342 36.2867C38.5455 36.6757 38.4002 37.0414 38.125 37.3166L37.3165 38.1251C37.0425 38.3991 36.6784 38.5447 36.2914 38.5343C35.9042 38.5242 35.5481 38.3602 35.2898 38.0734L30.1727 32.3686L32.3321 30.2093ZM30.9372 25.3096L28.3518 28.4568C28.3514 28.4572 28.3511 28.4577 28.3508 28.458L20.4274 38.1034C20.424 38.1075 20.4206 38.1117 20.4173 38.1159C20.0113 38.6329 19.2468 38.6797 18.7808 38.2138L16.7857 36.2187C16.3209 35.754 16.3655 34.9893 16.8837 34.5824C16.8879 34.5791 16.8921 34.5757 16.8962 34.5723L26.542 26.6491C26.5423 26.6488 26.5425 26.6486 26.5428 26.6484L29.6904 24.0629C29.9576 23.8434 30.0348 23.4669 29.8757 23.1599C28.9526 21.3792 29.2866 19.2287 30.7068 17.8085C31.5814 16.934 32.7654 16.4692 33.9627 16.4692C34.2207 16.4692 34.4793 16.4908 34.7356 16.5345L32.5951 18.6749C31.9004 19.3697 31.9004 20.5001 32.5951 21.1949L33.8049 22.4046C34.4998 23.0995 35.6307 23.0996 36.3257 22.4046L38.4658 20.2646C38.7123 21.71 38.2547 23.2303 37.1917 24.2932C35.7715 25.7134 33.6209 26.0473 31.8402 25.1243C31.5332 24.9651 31.1567 25.0424 30.9372 25.3096Z" fill="#396AFF"/>
</g>
<defs>
<clipPath id="clip0_105_394">
<rect width="25" height="25" fill="white" transform="translate(15 15)"/>
</clipPath>
</defs>
</svg>
