<svg width="300" height="60" viewBox="0 0 300 60" fill="none" xmlns="http://www.w3.org/2000/svg">
<rect width="60" height="60" rx="20" fill="#E7EDFF"/>
<path d="M81.2784 23H83.0341V18.9091H85.4205C88.1193 18.9091 89.4545 17.2784 89.4545 15.1307C89.4545 12.9886 88.1307 11.3636 85.4261 11.3636H81.2784V23ZM83.0341 17.4205V12.8693H85.2386C86.9773 12.8693 87.6875 13.8125 87.6875 15.1307C87.6875 16.4489 86.9773 17.4205 85.2614 17.4205H83.0341ZM93.0753 11.3636H91.3764V23H93.0753V11.3636ZM97.9006 23.1932C99.3438 23.1932 100.156 22.4602 100.48 21.8068H100.548V23H102.207V17.2045C102.207 14.6648 100.207 14.1591 98.821 14.1591C97.2415 14.1591 95.7869 14.7955 95.2188 16.3864L96.8153 16.75C97.0653 16.1307 97.7017 15.5341 98.8438 15.5341C99.9403 15.5341 100.503 16.108 100.503 17.0966V17.1364C100.503 17.7557 99.8665 17.7443 98.2983 17.9261C96.6449 18.1193 94.9517 18.5511 94.9517 20.5341C94.9517 22.25 96.2415 23.1932 97.9006 23.1932ZM98.2699 21.8295C97.3097 21.8295 96.6165 21.3977 96.6165 20.5568C96.6165 19.6477 97.4233 19.3239 98.4062 19.1932C98.9574 19.1193 100.264 18.9716 100.509 18.7273V19.8523C100.509 20.8864 99.6847 21.8295 98.2699 21.8295ZM105.232 26.2727C106.635 26.2727 107.521 25.5398 108.027 24.1648L111.635 14.2898L109.8 14.2727L107.589 21.0455H107.499L105.288 14.2727H103.47L106.663 23.1136L106.453 23.6932C106.021 24.8523 105.413 24.9489 104.482 24.6932L104.072 26.0852C104.277 26.1761 104.72 26.2727 105.232 26.2727ZM119.776 16.4034C119.423 15.0455 118.361 14.1591 116.474 14.1591C114.503 14.1591 113.105 15.1989 113.105 16.7443C113.105 17.983 113.855 18.8068 115.491 19.1705L116.969 19.4943C117.81 19.6818 118.202 20.0568 118.202 20.6023C118.202 21.2784 117.48 21.8068 116.366 21.8068C115.349 21.8068 114.696 21.3693 114.491 20.5114L112.849 20.7614C113.134 22.3068 114.418 23.1761 116.378 23.1761C118.486 23.1761 119.946 22.0568 119.946 20.4773C119.946 19.2443 119.162 18.483 117.56 18.1136L116.173 17.7955C115.213 17.5682 114.798 17.2443 114.804 16.6534C114.798 15.983 115.526 15.5057 116.491 15.5057C117.548 15.5057 118.037 16.0909 118.236 16.6761L119.776 16.4034ZM125.888 14.2727H124.098V12.1818H122.399V14.2727H121.121V15.6364H122.399V20.7898C122.393 22.375 123.604 23.142 124.945 23.1136C125.484 23.108 125.848 23.0057 126.047 22.9318L125.74 21.5284C125.626 21.5511 125.416 21.6023 125.143 21.6023C124.592 21.6023 124.098 21.4205 124.098 20.4375V15.6364H125.888V14.2727ZM130.307 23.1932C131.75 23.1932 132.562 22.4602 132.886 21.8068H132.955V23H134.614V17.2045C134.614 14.6648 132.614 14.1591 131.227 14.1591C129.648 14.1591 128.193 14.7955 127.625 16.3864L129.222 16.75C129.472 16.1307 130.108 15.5341 131.25 15.5341C132.347 15.5341 132.909 16.108 132.909 17.0966V17.1364C132.909 17.7557 132.273 17.7443 130.705 17.9261C129.051 18.1193 127.358 18.5511 127.358 20.5341C127.358 22.25 128.648 23.1932 130.307 23.1932ZM130.676 21.8295C129.716 21.8295 129.023 21.3977 129.023 20.5568C129.023 19.6477 129.83 19.3239 130.812 19.1932C131.364 19.1193 132.67 18.9716 132.915 18.7273V19.8523C132.915 20.8864 132.091 21.8295 130.676 21.8295ZM140.95 14.2727H139.161V12.1818H137.462V14.2727H136.183V15.6364H137.462V20.7898C137.456 22.375 138.666 23.142 140.007 23.1136C140.547 23.108 140.911 23.0057 141.109 22.9318L140.803 21.5284C140.689 21.5511 140.479 21.6023 140.206 21.6023C139.655 21.6023 139.161 21.4205 139.161 20.4375V15.6364H140.95V14.2727ZM142.83 23H144.528V14.2727H142.83V23ZM143.688 12.9261C144.273 12.9261 144.761 12.4716 144.761 11.9148C144.761 11.358 144.273 10.8977 143.688 10.8977C143.097 10.8977 142.614 11.358 142.614 11.9148C142.614 12.4716 143.097 12.9261 143.688 12.9261ZM150.49 23.1761C152.95 23.1761 154.558 21.375 154.558 18.6761C154.558 15.9602 152.95 14.1591 150.49 14.1591C148.03 14.1591 146.422 15.9602 146.422 18.6761C146.422 21.375 148.03 23.1761 150.49 23.1761ZM150.496 21.75C148.888 21.75 148.138 20.3466 148.138 18.6705C148.138 17 148.888 15.5795 150.496 15.5795C152.092 15.5795 152.842 17 152.842 18.6705C152.842 20.3466 152.092 21.75 150.496 21.75ZM158.153 17.8182C158.153 16.4261 159.006 15.6307 160.188 15.6307C161.341 15.6307 162.04 16.3864 162.04 17.6534V23H163.739V17.4489C163.739 15.2898 162.551 14.1591 160.767 14.1591C159.455 14.1591 158.597 14.767 158.193 15.6932H158.085V14.2727H156.455V23H158.153V17.8182Z" fill="#B1B1B1"/>
<path d="M84.5384 48.1491C86.6158 48.1491 88.1392 46.6151 88.1392 44.527C88.1392 42.4123 86.669 40.8622 84.6662 40.8622C83.9311 40.8622 83.2173 41.1232 82.7699 41.4801H82.706L83.0895 38.2628H87.6491V37.0909H81.9815L81.321 42.4602L82.5568 42.6094C83.0096 42.2844 83.782 42.0501 84.4531 42.0554C85.8434 42.0661 86.8608 43.1207 86.8608 44.5483C86.8608 45.9492 85.8807 46.9773 84.5384 46.9773C83.4197 46.9773 82.5302 46.2582 82.429 45.2727H81.1506C81.2305 46.9347 82.6634 48.1491 84.5384 48.1491ZM97.5848 48.1705C99.1615 48.1705 99.6942 47.1903 99.9711 46.7429H100.12V48H101.335V37.0909H100.078V41.1179H99.9711C99.6942 40.6918 99.2041 39.7116 97.6061 39.7116C95.5393 39.7116 94.1118 41.3523 94.1118 43.9304C94.1118 46.5298 95.5393 48.1705 97.5848 48.1705ZM97.7552 47.0412C96.1785 47.0412 95.3689 45.6562 95.3689 43.9091C95.3689 42.1832 96.1572 40.8409 97.7552 40.8409C99.2893 40.8409 100.099 42.0767 100.099 43.9091C100.099 45.7628 99.268 47.0412 97.7552 47.0412ZM106.219 48.1918C107.647 48.1918 108.393 47.4247 108.648 46.892H108.712V48H109.969V42.6094C109.969 40.0099 107.988 39.7116 106.944 39.7116C105.708 39.7116 104.302 40.1378 103.663 41.6293L104.856 42.0554C105.133 41.4588 105.788 40.8196 106.986 40.8196C108.142 40.8196 108.712 41.4322 108.712 42.4815V42.5241C108.712 43.1314 108.094 43.0781 106.603 43.2699C105.085 43.467 103.428 43.8026 103.428 45.6776C103.428 47.2756 104.664 48.1918 106.219 48.1918ZM106.411 47.0625C105.41 47.0625 104.685 46.6151 104.685 45.7415C104.685 44.7827 105.559 44.4844 106.539 44.3565C107.072 44.2926 108.499 44.1435 108.712 43.8878V45.0384C108.712 46.0611 107.903 47.0625 106.411 47.0625ZM112.781 51.0682C113.915 51.0682 114.714 50.4663 115.188 49.1932L118.672 39.8395L117.298 39.8182L115.039 46.3381H114.954L112.695 39.8182H111.332L114.357 48.0426L114.123 48.6818C113.665 49.9283 113.1 50.0455 112.184 49.8111L111.864 50.919C111.992 50.983 112.354 51.0682 112.781 51.0682ZM126.131 41.6506C125.736 40.4893 124.852 39.7116 123.233 39.7116C121.507 39.7116 120.229 40.6918 120.229 42.0767C120.229 43.206 120.9 43.9624 122.402 44.3139L123.766 44.6335C124.591 44.8253 124.98 45.2195 124.98 45.7841C124.98 46.4872 124.234 47.0625 123.062 47.0625C122.034 47.0625 121.39 46.6204 121.166 45.7415L119.973 46.0398C120.266 47.43 121.411 48.1705 123.084 48.1705C124.985 48.1705 126.28 47.1317 126.28 45.7202C126.28 44.5803 125.566 43.8612 124.106 43.5043L122.892 43.206C121.922 42.9663 121.486 42.6413 121.486 42.0128C121.486 41.3097 122.231 40.7983 123.233 40.7983C124.33 40.7983 124.783 41.4055 125.001 41.9702L126.131 41.6506ZM134.798 48.1918C136.226 48.1918 136.972 47.4247 137.227 46.892H137.291V48H138.548V42.6094C138.548 40.0099 136.567 39.7116 135.523 39.7116C134.287 39.7116 132.881 40.1378 132.242 41.6293L133.435 42.0554C133.712 41.4588 134.367 40.8196 135.566 40.8196C136.721 40.8196 137.291 41.4322 137.291 42.4815V42.5241C137.291 43.1314 136.673 43.0781 135.182 43.2699C133.664 43.467 132.007 43.8026 132.007 45.6776C132.007 47.2756 133.243 48.1918 134.798 48.1918ZM134.99 47.0625C133.989 47.0625 133.264 46.6151 133.264 45.7415C133.264 44.7827 134.138 44.4844 135.118 44.3565C135.651 44.2926 137.078 44.1435 137.291 43.8878V45.0384C137.291 46.0611 136.482 47.0625 134.99 47.0625ZM144.146 51.2386C146.106 51.2386 147.682 50.3438 147.682 48.2344V39.8182H146.468V41.1179H146.34C146.063 40.6918 145.552 39.7116 143.954 39.7116C141.887 39.7116 140.459 41.3523 140.459 43.8665C140.459 46.4233 141.951 47.8722 143.932 47.8722C145.53 47.8722 146.042 46.9347 146.319 46.4872H146.425V48.1491C146.425 49.5128 145.467 50.1307 144.146 50.1307C142.659 50.1307 142.137 49.3477 141.802 48.8949L140.8 49.598C141.312 50.4556 142.318 51.2386 144.146 51.2386ZM144.103 46.7429C142.526 46.7429 141.717 45.5497 141.717 43.8452C141.717 42.1832 142.505 40.8409 144.103 40.8409C145.637 40.8409 146.447 42.0767 146.447 43.8452C146.447 45.6562 145.616 46.7429 144.103 46.7429ZM153.307 48.1705C155.523 48.1705 157.015 46.4872 157.015 43.9517C157.015 41.3949 155.523 39.7116 153.307 39.7116C151.092 39.7116 149.6 41.3949 149.6 43.9517C149.6 46.4872 151.092 48.1705 153.307 48.1705ZM153.307 47.0412C151.624 47.0412 150.857 45.5923 150.857 43.9517C150.857 42.3111 151.624 40.8409 153.307 40.8409C154.991 40.8409 155.758 42.3111 155.758 43.9517C155.758 45.5923 154.991 47.0412 153.307 47.0412Z" fill="#718EBF"/>
<path d="M257.402 37.4545H258.334V36.1875C260.72 36.0227 262.061 34.6136 262.061 32.8409C262.061 30.6591 259.993 29.9545 258.788 29.6364L258.334 29.5114V25.4716C259.538 25.5909 260.413 26.2386 260.538 27.2727H261.902C261.845 25.6136 260.391 24.3523 258.334 24.2159V22.9091H257.402V24.233C255.453 24.4318 253.993 25.6705 253.993 27.4545C253.993 29.0227 255.129 29.9545 256.947 30.4773L257.402 30.608V34.9091C256.209 34.7841 255.232 34.1705 255.129 33H253.675C253.805 34.7898 255.169 36.0398 257.402 36.1875V37.4545ZM258.334 34.9091V30.875L258.379 30.8864C259.607 31.2273 260.697 31.6591 260.697 32.8182C260.697 33.9602 259.709 34.7557 258.334 34.9091ZM257.402 29.2614C256.538 29.017 255.357 28.5398 255.357 27.3864C255.357 26.4034 256.152 25.6534 257.402 25.4886V29.2614ZM268.264 24.3636H266.855L263.946 26.2955V27.7273L266.787 25.8409H266.855V36H268.264V24.3636ZM275.406 36.1591C277.974 36.1591 279.452 33.983 279.452 30.1818C279.452 26.4091 277.952 24.2045 275.406 24.2045C272.861 24.2045 271.361 26.4091 271.361 30.1818C271.361 33.983 272.838 36.1591 275.406 36.1591ZM275.406 34.9091C273.713 34.9091 272.724 33.2102 272.724 30.1818C272.724 27.1591 273.724 25.4318 275.406 25.4318C277.088 25.4318 278.088 27.1591 278.088 30.1818C278.088 33.2102 277.099 34.9091 275.406 34.9091ZM285.338 36.1591C287.662 36.1591 289.281 34.8011 289.293 32.9091C289.281 31.4375 288.298 30.1875 287.043 29.9545V29.8864C288.134 29.6023 288.849 28.5341 288.861 27.2955C288.849 25.5227 287.361 24.2045 285.338 24.2045C283.293 24.2045 281.804 25.5227 281.815 27.2955C281.804 28.5341 282.52 29.6023 283.634 29.8864V29.9545C282.355 30.1875 281.372 31.4375 281.384 32.9091C281.372 34.8011 282.991 36.1591 285.338 36.1591ZM285.338 34.9091C283.741 34.9091 282.759 34.0909 282.77 32.8409C282.759 31.5284 283.844 30.5909 285.338 30.5909C286.81 30.5909 287.895 31.5284 287.906 32.8409C287.895 34.0909 286.912 34.9091 285.338 34.9091ZM285.338 29.3864C284.065 29.3864 283.168 28.5909 283.179 27.3864C283.168 26.2045 284.031 25.4318 285.338 25.4318C286.622 25.4318 287.486 26.2045 287.497 27.3864C287.486 28.5909 286.588 29.3864 285.338 29.3864ZM295.107 36.1591C297.322 36.1591 298.947 34.5227 298.947 32.2955C298.947 30.0398 297.379 28.3864 295.243 28.3864C294.459 28.3864 293.697 28.6648 293.22 29.0455H293.152L293.561 25.6136H298.425V24.3636H292.379L291.675 30.0909L292.993 30.25C293.476 29.9034 294.3 29.6534 295.016 29.6591C296.499 29.6705 297.584 30.7955 297.584 32.3182C297.584 33.8125 296.538 34.9091 295.107 34.9091C293.913 34.9091 292.964 34.142 292.857 33.0909H291.493C291.578 34.8636 293.107 36.1591 295.107 36.1591Z" fill="#718EBF"/>
<g clip-path="url(#clip0_101_306)">
<path d="M38.2994 31.265C37.8337 31.265 37.3736 31.3332 36.9314 31.4675L31.2315 33.0454V24.9836C31.2315 24.5798 31.5601 24.2512 31.9639 24.2512C32.3678 24.2512 32.6963 24.5798 32.6963 24.9836V30.6813H33.4288C36.2558 30.6813 38.5557 28.3813 38.5557 25.5543C38.5557 23.2667 37.0191 21.237 34.8161 20.6175L25.3559 18V30.556L21.5599 31.6067C21.1117 31.7189 20.682 31.8971 20.2826 32.1366C18.0601 33.4691 17.3361 36.3615 18.6687 38.584C19.1965 39.4642 19.9767 40.1334 20.925 40.5193C21.4904 40.7494 22.0993 40.8661 22.7074 40.866C23.085 40.866 23.4623 40.821 23.8286 40.7303L25.3559 40.3077V41.5762L30.4991 43L39.6583 40.4646L39.6775 40.459C40.6192 40.1705 41.465 39.576 42.0592 38.7849C42.6741 37.9663 42.9991 36.9911 42.9991 35.9648C42.9991 33.3733 40.8908 31.265 38.2994 31.265ZM25.3558 34.6719L21.504 35.7381L21.8949 37.1499L25.3558 36.1918V38.7878L23.4669 39.3107C23.2075 39.3742 22.9467 39.405 22.6894 39.405C21.5732 39.4049 20.5218 38.8262 19.925 37.8307C19.0078 36.3009 19.5061 34.3101 21.0359 33.3928C21.3134 33.2264 21.6117 33.103 21.9223 33.026L25.3558 32.0758V34.6719ZM29.7666 24.9836V41.2773L26.8207 40.4618V19.9252L34.4226 22.0286C35.9936 22.4703 37.0909 23.9202 37.0909 25.5544C37.0909 27.3229 35.8306 28.8026 34.1612 29.1429V24.9836C34.1612 23.7721 33.1755 22.7864 31.9639 22.7864C30.7523 22.7864 29.7666 23.7721 29.7666 24.9836ZM39.2573 39.0556L31.2315 41.2773V38.6813L39.4946 36.3938L39.1038 34.9821L31.2315 37.1613V34.5653L37.3314 32.8767L37.3505 32.8711C37.6565 32.7774 37.9758 32.7299 38.2994 32.7299C40.0831 32.7299 41.5343 34.1811 41.5343 35.9647C41.5342 37.3931 40.6195 38.6341 39.2573 39.0556Z" fill="#396AFF"/>
</g>
<defs>
<clipPath id="clip0_101_306">
<rect width="25" height="25" fill="white" transform="translate(18 18)"/>
</clipPath>
</defs>
</svg>
