<svg width="680" height="55" viewBox="0 0 680 55" fill="none" xmlns="http://www.w3.org/2000/svg">
<path d="M87.625 11.4205H89.3182C89.267 9.55682 87.6193 8.20455 85.2557 8.20455C82.9205 8.20455 81.1307 9.53977 81.1307 11.5455C81.1307 13.1648 82.2898 14.1136 84.1591 14.6193L85.5341 14.9943C86.7784 15.3239 87.7386 15.733 87.7386 16.767C87.7386 17.9034 86.6534 18.6534 85.1591 18.6534C83.8068 18.6534 82.6818 18.0511 82.5795 16.7841H80.8182C80.9318 18.892 82.5625 20.1932 85.1705 20.1932C87.9034 20.1932 89.4773 18.7557 89.4773 16.7841C89.4773 14.6875 87.608 13.875 86.1307 13.5114L84.9943 13.2159C84.0852 12.983 82.875 12.5568 82.8807 11.4432C82.8807 10.4545 83.7841 9.72159 85.2159 9.72159C86.5511 9.72159 87.5 10.3466 87.625 11.4205ZM91.4389 23.2727H93.1378V18.642H93.2401C93.5469 19.1989 94.1719 20.1705 95.7628 20.1705C97.8764 20.1705 99.4105 18.4773 99.4105 15.6534C99.4105 12.8239 97.8537 11.1591 95.7457 11.1591C94.1264 11.1591 93.5412 12.1477 93.2401 12.6875H93.098V11.2727H91.4389V23.2727ZM93.1037 15.6364C93.1037 13.8125 93.8991 12.6023 95.3821 12.6023C96.9219 12.6023 97.6946 13.9034 97.6946 15.6364C97.6946 17.3864 96.8991 18.7216 95.3821 18.7216C93.9219 18.7216 93.1037 17.4716 93.1037 15.6364ZM104.99 20.1761C107.45 20.1761 109.058 18.375 109.058 15.6761C109.058 12.9602 107.45 11.1591 104.99 11.1591C102.53 11.1591 100.922 12.9602 100.922 15.6761C100.922 18.375 102.53 20.1761 104.99 20.1761ZM104.996 18.75C103.388 18.75 102.638 17.3466 102.638 15.6705C102.638 14 103.388 12.5795 104.996 12.5795C106.592 12.5795 107.342 14 107.342 15.6705C107.342 17.3466 106.592 18.75 104.996 18.75ZM115.028 11.2727H113.239V9.18182H111.54V11.2727H110.261V12.6364H111.54V17.7898C111.534 19.375 112.744 20.142 114.085 20.1136C114.625 20.108 114.989 20.0057 115.188 19.9318L114.881 18.5284C114.767 18.5511 114.557 18.6023 114.284 18.6023C113.733 18.6023 113.239 18.4205 113.239 17.4375V12.6364H115.028V11.2727ZM116.908 20H118.607V11.2727H116.908V20ZM117.766 9.92614C118.351 9.92614 118.839 9.47159 118.839 8.91477C118.839 8.35795 118.351 7.89773 117.766 7.89773C117.175 7.89773 116.692 8.35795 116.692 8.91477C116.692 9.47159 117.175 9.92614 117.766 9.92614ZM125.045 11.2727H123.165V10.4886C123.165 9.71591 123.483 9.29545 124.312 9.29545C124.665 9.29545 124.915 9.375 125.074 9.42614L125.472 8.05114C125.233 7.96023 124.739 7.81818 124.051 7.81818C122.67 7.81818 121.46 8.625 121.46 10.2614V11.2727H120.114V12.6364H121.46V20H123.165V12.6364H125.045V11.2727ZM127.872 23.2727C129.276 23.2727 130.162 22.5398 130.668 21.1648L134.276 11.2898L132.44 11.2727L130.23 18.0455H130.139L127.929 11.2727H126.111L129.304 20.1136L129.094 20.6932C128.662 21.8523 128.054 21.9489 127.122 21.6932L126.713 23.0852C126.918 23.1761 127.361 23.2727 127.872 23.2727ZM146.594 11.4205H148.287C148.236 9.55682 146.588 8.20455 144.224 8.20455C141.889 8.20455 140.099 9.53977 140.099 11.5455C140.099 13.1648 141.259 14.1136 143.128 14.6193L144.503 14.9943C145.747 15.3239 146.707 15.733 146.707 16.767C146.707 17.9034 145.622 18.6534 144.128 18.6534C142.776 18.6534 141.651 18.0511 141.548 16.7841H139.787C139.901 18.892 141.531 20.1932 144.139 20.1932C146.872 20.1932 148.446 18.7557 148.446 16.7841C148.446 14.6875 146.577 13.875 145.099 13.5114L143.963 13.2159C143.054 12.983 141.844 12.5568 141.849 11.4432C141.849 10.4545 142.753 9.72159 144.185 9.72159C145.52 9.72159 146.469 10.3466 146.594 11.4205ZM155.936 16.3807C155.942 17.8636 154.839 18.5682 153.885 18.5682C152.834 18.5682 152.107 17.8068 152.107 16.6193V11.2727H150.408V16.8239C150.408 18.9886 151.595 20.1136 153.271 20.1136C154.584 20.1136 155.476 19.4205 155.879 18.4886H155.97V20H157.641V11.2727H155.936V16.3807ZM160.06 20H161.719V18.642H161.861C162.168 19.1989 162.793 20.1705 164.384 20.1705C166.497 20.1705 168.031 18.4773 168.031 15.6534C168.031 12.8239 166.474 11.1591 164.366 11.1591C162.747 11.1591 162.162 12.1477 161.861 12.6875H161.759V8.36364H160.06V20ZM161.724 15.6364C161.724 13.8125 162.52 12.6023 164.003 12.6023C165.543 12.6023 166.315 13.9034 166.315 15.6364C166.315 17.3864 165.52 18.7216 164.003 18.7216C162.543 18.7216 161.724 17.4716 161.724 15.6364ZM176.479 13.4034C176.126 12.0455 175.064 11.1591 173.178 11.1591C171.206 11.1591 169.808 12.1989 169.808 13.7443C169.808 14.983 170.558 15.8068 172.195 16.1705L173.672 16.4943C174.513 16.6818 174.905 17.0568 174.905 17.6023C174.905 18.2784 174.183 18.8068 173.07 18.8068C172.053 18.8068 171.399 18.3693 171.195 17.5114L169.553 17.7614C169.837 19.3068 171.121 20.1761 173.081 20.1761C175.189 20.1761 176.649 19.0568 176.649 17.4773C176.649 16.2443 175.865 15.483 174.263 15.1136L172.876 14.7955C171.916 14.5682 171.501 14.2443 171.507 13.6534C171.501 12.983 172.229 12.5057 173.195 12.5057C174.251 12.5057 174.74 13.0909 174.939 13.6761L176.479 13.4034ZM182.193 20.1761C184.256 20.1761 185.591 18.9375 185.778 17.2386H184.125C183.909 18.1818 183.176 18.7386 182.205 18.7386C180.767 18.7386 179.841 17.5398 179.841 15.6364C179.841 13.767 180.784 12.5909 182.205 12.5909C183.284 12.5909 183.943 13.2727 184.125 14.0909H185.778C185.597 12.3295 184.159 11.1591 182.176 11.1591C179.716 11.1591 178.125 13.0114 178.125 15.6761C178.125 18.3068 179.659 20.1761 182.193 20.1761ZM187.595 20H189.294V14.6705C189.294 13.5284 190.175 12.7045 191.379 12.7045C191.732 12.7045 192.129 12.767 192.266 12.8068V11.1818C192.095 11.1591 191.76 11.142 191.544 11.142C190.521 11.142 189.646 11.7216 189.328 12.6591H189.237V11.2727H187.595V20ZM193.736 20H195.435V11.2727H193.736V20ZM194.594 9.92614C195.179 9.92614 195.668 9.47159 195.668 8.91477C195.668 8.35795 195.179 7.89773 194.594 7.89773C194.003 7.89773 193.52 8.35795 193.52 8.91477C193.52 9.47159 194.003 9.92614 194.594 9.92614ZM197.72 23.2727H199.419V18.642H199.521C199.828 19.1989 200.453 20.1705 202.044 20.1705C204.158 20.1705 205.692 18.4773 205.692 15.6534C205.692 12.8239 204.135 11.1591 202.027 11.1591C200.408 11.1591 199.822 12.1477 199.521 12.6875H199.379V11.2727H197.72V23.2727ZM199.385 15.6364C199.385 13.8125 200.18 12.6023 201.663 12.6023C203.203 12.6023 203.976 13.9034 203.976 15.6364C203.976 17.3864 203.18 18.7216 201.663 18.7216C200.203 18.7216 199.385 17.4716 199.385 15.6364ZM211.669 11.2727H209.879V9.18182H208.18V11.2727H206.902V12.6364H208.18V17.7898C208.175 19.375 209.385 20.142 210.726 20.1136C211.266 20.108 211.629 20.0057 211.828 19.9318L211.521 18.5284C211.408 18.5511 211.197 18.6023 210.925 18.6023C210.374 18.6023 209.879 18.4205 209.879 17.4375V12.6364H211.669V11.2727ZM213.548 20H215.247V11.2727H213.548V20ZM214.406 9.92614C214.991 9.92614 215.48 9.47159 215.48 8.91477C215.48 8.35795 214.991 7.89773 214.406 7.89773C213.815 7.89773 213.332 8.35795 213.332 8.91477C213.332 9.47159 213.815 9.92614 214.406 9.92614ZM221.209 20.1761C223.669 20.1761 225.277 18.375 225.277 15.6761C225.277 12.9602 223.669 11.1591 221.209 11.1591C218.749 11.1591 217.141 12.9602 217.141 15.6761C217.141 18.375 218.749 20.1761 221.209 20.1761ZM221.214 18.75C219.607 18.75 218.857 17.3466 218.857 15.6705C218.857 14 219.607 12.5795 221.214 12.5795C222.811 12.5795 223.561 14 223.561 15.6705C223.561 17.3466 222.811 18.75 221.214 18.75ZM228.872 14.8182C228.872 13.4261 229.724 12.6307 230.906 12.6307C232.06 12.6307 232.759 13.3864 232.759 14.6534V20H234.457V14.4489C234.457 12.2898 233.27 11.1591 231.486 11.1591C230.173 11.1591 229.315 11.767 228.912 12.6932H228.804V11.2727H227.173V20H228.872V14.8182Z" fill="#232323"/>
<path d="M81.1293 45H88.0114V43.8281H82.9403V43.7429L85.3906 41.1222C87.2656 39.114 87.8196 38.1765 87.8196 36.9673C87.8196 35.2841 86.456 33.9418 84.5384 33.9418C82.6261 33.9418 81.1719 35.2415 81.1719 37.1591H82.429C82.429 35.918 83.2333 35.0923 84.4957 35.0923C85.6783 35.0923 86.5838 35.8168 86.5838 36.9673C86.5838 37.9741 85.9925 38.7198 84.7301 40.0994L81.1293 44.0412V45ZM93.6204 45.1491C95.6978 45.1491 97.2212 43.6151 97.2212 41.527C97.2212 39.4123 95.7511 37.8622 93.7482 37.8622C93.0131 37.8622 92.2994 38.1232 91.8519 38.4801H91.788L92.1715 35.2628H96.7312V34.0909H91.0636L90.4031 39.4602L91.6388 39.6094C92.0916 39.2844 92.864 39.0501 93.5352 39.0554C94.9254 39.0661 95.9428 40.1207 95.9428 41.5483C95.9428 42.9492 94.9627 43.9773 93.6204 43.9773C92.5018 43.9773 91.6122 43.2582 91.511 42.2727H90.2326C90.3125 43.9347 91.7454 45.1491 93.6204 45.1491ZM107.924 34.0909V41.8892C107.924 43.2475 107.274 43.9773 106.134 43.9773C105.095 43.9773 104.344 43.37 104.344 42.4432H103.045C103.045 44.1211 104.344 45.1491 106.134 45.1491C108.03 45.1491 109.245 43.9826 109.245 41.8892V34.0909H107.924ZM114.13 45.1918C115.557 45.1918 116.303 44.4247 116.559 43.892H116.622V45H117.88V39.6094C117.88 37.0099 115.898 36.7116 114.854 36.7116C113.618 36.7116 112.212 37.1378 111.573 38.6293L112.766 39.0554C113.043 38.4588 113.698 37.8196 114.897 37.8196C116.052 37.8196 116.622 38.4322 116.622 39.4815V39.5241C116.622 40.1314 116.005 40.0781 114.513 40.2699C112.995 40.467 111.338 40.8026 111.338 42.6776C111.338 44.2756 112.574 45.1918 114.13 45.1918ZM114.321 44.0625C113.32 44.0625 112.595 43.6151 112.595 42.7415C112.595 41.7827 113.469 41.4844 114.449 41.3565C114.982 41.2926 116.409 41.1435 116.622 40.8878V42.0384C116.622 43.0611 115.813 44.0625 114.321 44.0625ZM121.431 40.0781C121.431 38.6506 122.315 37.8409 123.519 37.8409C124.686 37.8409 125.394 38.6026 125.394 39.8864V45H126.651V39.8011C126.651 37.7131 125.538 36.7116 123.881 36.7116C122.646 36.7116 121.879 37.2656 121.495 38.0966H121.388V36.8182H120.174V45H121.431V40.0781ZM133.146 45H140.028V43.8281H134.957V43.7429L137.407 41.1222C139.282 39.114 139.836 38.1765 139.836 36.9673C139.836 35.2841 138.473 33.9418 136.555 33.9418C134.643 33.9418 133.188 35.2415 133.188 37.1591H134.446C134.446 35.918 135.25 35.0923 136.512 35.0923C137.695 35.0923 138.6 35.8168 138.6 36.9673C138.6 37.9741 138.009 38.7198 136.747 40.0994L133.146 44.0412V45ZM145.786 45.1491C148.194 45.1491 149.579 43.109 149.579 39.5455C149.579 36.0085 148.172 33.9418 145.786 33.9418C143.4 33.9418 141.994 36.0085 141.994 39.5455C141.994 43.109 143.378 45.1491 145.786 45.1491ZM145.786 43.9773C144.199 43.9773 143.272 42.3846 143.272 39.5455C143.272 36.7116 144.209 35.0923 145.786 35.0923C147.363 35.0923 148.3 36.7116 148.3 39.5455C148.3 42.3846 147.373 43.9773 145.786 43.9773ZM151.603 45H158.485V43.8281H153.414V43.7429L155.864 41.1222C157.739 39.114 158.293 38.1765 158.293 36.9673C158.293 35.2841 156.93 33.9418 155.012 33.9418C153.1 33.9418 151.646 35.2415 151.646 37.1591H152.903C152.903 35.918 153.707 35.0923 154.969 35.0923C156.152 35.0923 157.057 35.8168 157.057 36.9673C157.057 37.9741 156.466 38.7198 155.204 40.0994L151.603 44.0412V45ZM164.52 34.0909H163.199L160.472 35.902V37.2443L163.135 35.4759H163.199V45H164.52V34.0909Z" fill="#718EBF"/>
<path d="M503.409 33H504.818V28.75H507.364C510.074 28.75 511.295 27.1023 511.295 25.0455C511.295 22.9886 510.074 21.3636 507.341 21.3636H503.409V33ZM504.818 27.5V22.6136H507.295C509.188 22.6136 509.909 23.6477 509.909 25.0455C509.909 26.4432 509.188 27.5 507.318 27.5H504.818ZM516.949 33.1818C518.722 33.1818 520.017 32.2955 520.426 30.9773L519.131 30.6136C518.79 31.5227 518 31.9773 516.949 31.9773C515.375 31.9773 514.29 30.9602 514.227 29.0909H520.562V28.5227C520.562 25.2727 518.631 24.1591 516.812 24.1591C514.449 24.1591 512.881 26.0227 512.881 28.7045C512.881 31.3864 514.426 33.1818 516.949 33.1818ZM514.227 27.9318C514.318 26.5739 515.278 25.3636 516.812 25.3636C518.267 25.3636 519.199 26.4545 519.199 27.9318H514.227ZM523.943 27.75C523.943 26.2273 524.886 25.3636 526.17 25.3636C527.415 25.3636 528.17 26.1761 528.17 27.5455V33H529.511V27.4545C529.511 25.2273 528.324 24.1591 526.557 24.1591C525.239 24.1591 524.42 24.75 524.011 25.6364H523.898V24.2727H522.602V33H523.943V27.75ZM535.257 33.1818C536.939 33.1818 537.507 32.1364 537.803 31.6591H537.962V33H539.257V21.3636H537.916V25.6591H537.803C537.507 25.2045 536.984 24.1591 535.28 24.1591C533.075 24.1591 531.553 25.9091 531.553 28.6591C531.553 31.4318 533.075 33.1818 535.257 33.1818ZM535.439 31.9773C533.757 31.9773 532.893 30.5 532.893 28.6364C532.893 26.7955 533.734 25.3636 535.439 25.3636C537.075 25.3636 537.939 26.6818 537.939 28.6364C537.939 30.6136 537.053 31.9773 535.439 31.9773ZM541.899 33H543.24V24.2727H541.899V33ZM542.581 22.8182C543.104 22.8182 543.536 22.4091 543.536 21.9091C543.536 21.4091 543.104 21 542.581 21C542.058 21 541.626 21.4091 541.626 21.9091C541.626 22.4091 542.058 22.8182 542.581 22.8182ZM547.037 27.75C547.037 26.2273 547.98 25.3636 549.264 25.3636C550.509 25.3636 551.264 26.1761 551.264 27.5455V33H552.605V27.4545C552.605 25.2273 551.418 24.1591 549.651 24.1591C548.332 24.1591 547.514 24.75 547.105 25.6364H546.991V24.2727H545.696V33H547.037V27.75ZM558.578 36.4545C560.669 36.4545 562.351 35.5 562.351 33.25V24.2727H561.055V25.6591H560.919C560.624 25.2045 560.078 24.1591 558.374 24.1591C556.169 24.1591 554.646 25.9091 554.646 28.5909C554.646 31.3182 556.237 32.8636 558.351 32.8636C560.055 32.8636 560.601 31.8636 560.896 31.3864H561.01V33.1591C561.01 34.6136 559.987 35.2727 558.578 35.2727C556.993 35.2727 556.436 34.4375 556.078 33.9545L555.01 34.7045C555.555 35.6193 556.629 36.4545 558.578 36.4545ZM558.533 31.6591C556.851 31.6591 555.987 30.3864 555.987 28.5682C555.987 26.7955 556.828 25.3636 558.533 25.3636C560.169 25.3636 561.033 26.6818 561.033 28.5682C561.033 30.5 560.146 31.6591 558.533 31.6591Z" fill="#718EBF"/>
<path d="M387.295 21.3636H385.886L382.977 23.2955V24.7273L385.818 22.8409H385.886V33H387.295V21.3636ZM390.642 33H397.983V31.75H392.574V31.6591L395.188 28.8636C397.188 26.7216 397.778 25.7216 397.778 24.4318C397.778 22.6364 396.324 21.2045 394.278 21.2045C392.239 21.2045 390.688 22.5909 390.688 24.6364H392.028C392.028 23.3125 392.886 22.4318 394.233 22.4318C395.494 22.4318 396.46 23.2045 396.46 24.4318C396.46 25.5057 395.83 26.3011 394.483 27.7727L390.642 31.9773V33ZM404.261 33.1591C406.517 33.1591 408.193 31.7443 408.193 29.8409C408.193 28.3636 407.318 27.2898 405.852 27.0455V26.9545C407.028 26.5966 407.761 25.6307 407.761 24.3182C407.761 22.6705 406.46 21.2045 404.307 21.2045C402.295 21.2045 400.625 22.4432 400.557 24.2727H401.92C401.972 23.1136 403.074 22.4318 404.284 22.4318C405.568 22.4318 406.398 23.2102 406.398 24.3864C406.398 25.6136 405.438 26.4091 404.057 26.4091H403.125V27.6591H404.057C405.824 27.6591 406.807 28.5568 406.807 29.8409C406.807 31.0739 405.733 31.9091 404.239 31.9091C402.892 31.9091 401.824 31.2159 401.739 30.0909H400.307C400.392 31.9205 402.006 33.1591 404.261 33.1591ZM410.244 30.6136H415.722V33H417.062V30.6136H418.653V29.3636H417.062V21.3636H415.358L410.244 29.4545V30.6136ZM415.722 29.3636H411.767V29.2727L415.631 23.1591H415.722V29.3636ZM427.533 27.9091H428.624L428.533 25.4091L430.646 26.75L431.192 25.7955L428.964 24.6364L431.192 23.4773L430.646 22.5227L428.533 23.8636L428.624 21.3636H427.533L427.624 23.8636L425.51 22.5227L424.964 23.4773L427.192 24.6364L424.964 25.7955L425.51 26.75L427.624 25.4091L427.533 27.9091ZM435.533 27.9091H436.624L436.533 25.4091L438.646 26.75L439.192 25.7955L436.964 24.6364L439.192 23.4773L438.646 22.5227L436.533 23.8636L436.624 21.3636H435.533L435.624 23.8636L433.51 22.5227L432.964 23.4773L435.192 24.6364L432.964 25.7955L433.51 26.75L435.624 25.4091L435.533 27.9091ZM443.533 27.9091H444.624L444.533 25.4091L446.646 26.75L447.192 25.7955L444.964 24.6364L447.192 23.4773L446.646 22.5227L444.533 23.8636L444.624 21.3636H443.533L443.624 23.8636L441.51 22.5227L440.964 23.4773L443.192 24.6364L440.964 25.7955L441.51 26.75L443.624 25.4091L443.533 27.9091ZM451.533 27.9091H452.624L452.533 25.4091L454.646 26.75L455.192 25.7955L452.964 24.6364L455.192 23.4773L454.646 22.5227L452.533 23.8636L452.624 21.3636H451.533L451.624 23.8636L449.51 22.5227L448.964 23.4773L451.192 24.6364L448.964 25.7955L449.51 26.75L451.624 25.4091L451.533 27.9091Z" fill="#718EBF"/>
<path d="M274.773 24.2727H276.136C276.074 22.517 274.455 21.2045 272.205 21.2045C269.977 21.2045 268.227 22.5 268.227 24.4545C268.227 26.0227 269.364 26.9545 271.182 27.4773L272.614 27.8864C273.841 28.2273 274.932 28.6591 274.932 29.8182C274.932 31.0909 273.705 31.9318 272.091 31.9318C270.705 31.9318 269.477 31.3182 269.364 30H267.909C268.045 31.9091 269.591 33.2045 272.091 33.2045C274.773 33.2045 276.295 31.7273 276.295 29.8409C276.295 27.6591 274.227 26.9545 273.023 26.6364L271.841 26.3182C270.977 26.0909 269.591 25.6364 269.591 24.3864C269.591 23.2727 270.614 22.4545 272.159 22.4545C273.568 22.4545 274.636 23.125 274.773 24.2727ZM279.771 27.75C279.771 26.2273 280.743 25.3636 282.067 25.3636C283.328 25.3636 284.089 26.1591 284.089 27.5455V33H285.43V27.4545C285.43 25.2102 284.237 24.1591 282.453 24.1591C281.078 24.1591 280.294 24.733 279.885 25.6364H279.771V21.3636H278.43V33H279.771V27.75ZM291.429 33.1818C293.793 33.1818 295.384 31.3864 295.384 28.6818C295.384 25.9545 293.793 24.1591 291.429 24.1591C289.065 24.1591 287.474 25.9545 287.474 28.6818C287.474 31.3864 289.065 33.1818 291.429 33.1818ZM291.429 31.9773C289.634 31.9773 288.815 30.4318 288.815 28.6818C288.815 26.9318 289.634 25.3636 291.429 25.3636C293.224 25.3636 294.043 26.9318 294.043 28.6818C294.043 30.4318 293.224 31.9773 291.429 31.9773ZM297.43 36.2727H298.771V31.6591H298.885C299.18 32.1364 299.749 33.1818 301.43 33.1818C303.612 33.1818 305.135 31.4318 305.135 28.6591C305.135 25.9091 303.612 24.1591 301.408 24.1591C299.703 24.1591 299.18 25.2045 298.885 25.6591H298.726V24.2727H297.43V36.2727ZM298.749 28.6364C298.749 26.6818 299.612 25.3636 301.249 25.3636C302.953 25.3636 303.794 26.7955 303.794 28.6364C303.794 30.5 302.93 31.9773 301.249 31.9773C299.635 31.9773 298.749 30.6136 298.749 28.6364ZM307.18 36.2727H308.521V31.6591H308.635C308.93 32.1364 309.499 33.1818 311.18 33.1818C313.362 33.1818 314.885 31.4318 314.885 28.6591C314.885 25.9091 313.362 24.1591 311.158 24.1591C309.453 24.1591 308.93 25.2045 308.635 25.6591H308.476V24.2727H307.18V36.2727ZM308.499 28.6364C308.499 26.6818 309.362 25.3636 310.999 25.3636C312.703 25.3636 313.544 26.7955 313.544 28.6364C313.544 30.5 312.68 31.9773 310.999 31.9773C309.385 31.9773 308.499 30.6136 308.499 28.6364ZM316.93 33H318.271V24.2727H316.93V33ZM317.612 22.8182C318.135 22.8182 318.567 22.4091 318.567 21.9091C318.567 21.4091 318.135 21 317.612 21C317.089 21 316.658 21.4091 316.658 21.9091C316.658 22.4091 317.089 22.8182 317.612 22.8182ZM322.068 27.75C322.068 26.2273 323.011 25.3636 324.295 25.3636C325.54 25.3636 326.295 26.1761 326.295 27.5455V33H327.636V27.4545C327.636 25.2273 326.449 24.1591 324.682 24.1591C323.364 24.1591 322.545 24.75 322.136 25.6364H322.023V24.2727H320.727V33H322.068V27.75ZM333.609 36.4545C335.7 36.4545 337.382 35.5 337.382 33.25V24.2727H336.087V25.6591H335.95C335.655 25.2045 335.109 24.1591 333.405 24.1591C331.2 24.1591 329.678 25.9091 329.678 28.5909C329.678 31.3182 331.268 32.8636 333.382 32.8636C335.087 32.8636 335.632 31.8636 335.928 31.3864H336.041V33.1591C336.041 34.6136 335.018 35.2727 333.609 35.2727C332.024 35.2727 331.467 34.4375 331.109 33.9545L330.041 34.7045C330.587 35.6193 331.661 36.4545 333.609 36.4545ZM333.564 31.6591C331.882 31.6591 331.018 30.3864 331.018 28.5682C331.018 26.7955 331.859 25.3636 333.564 25.3636C335.2 25.3636 336.064 26.6818 336.064 28.5682C336.064 30.5 335.178 31.6591 333.564 31.6591Z" fill="#718EBF"/>
<path d="M640.768 26.4489H635.609V27.9205H640.768V26.4489ZM646.516 34.4545H647.584L647.589 33.1761C649.993 33 651.368 31.625 651.368 29.7841C651.368 27.6875 649.499 26.875 648.021 26.5114L647.607 26.4034L647.618 22.7557C648.68 22.8977 649.408 23.4886 649.516 24.4205H651.209C651.163 22.6875 649.732 21.392 647.624 21.2216L647.629 19.9091H646.561L646.555 21.233C644.516 21.4375 643.021 22.7102 643.021 24.5455C643.021 26.1648 644.18 27.1136 646.05 27.6193L646.538 27.75L646.527 31.6193C645.419 31.483 644.561 30.8807 644.47 29.7841H642.709C642.817 31.7443 644.232 33.0057 646.521 33.1761L646.516 34.4545ZM647.595 31.6193L647.607 28.0455C648.76 28.3636 649.629 28.7841 649.629 29.767C649.629 30.7614 648.8 31.4602 647.595 31.6193ZM646.544 26.1193C645.697 25.8693 644.766 25.4205 644.771 24.4432C644.771 23.5909 645.447 22.9261 646.55 22.7614L646.544 26.1193ZM657.722 21.3636H656.011L653.108 23.2614V24.9432L655.892 23.125H655.96V33H657.722V21.3636ZM664.71 33.1591C667.051 33.1591 668.722 31.5057 668.716 29.2386C668.722 26.9886 667.153 25.3523 665.034 25.3523C664.17 25.3523 663.369 25.6818 662.915 26.125H662.847L663.216 22.8693H668.153V21.3636H661.756L661.102 27.2273L662.71 27.4659C663.148 27.0739 663.932 26.8068 664.636 26.8068C666.017 26.8182 667.017 27.8523 667.017 29.2727C667.017 30.6705 666.045 31.6818 664.71 31.6818C663.585 31.6818 662.693 30.9659 662.602 29.9659H660.898C660.966 31.8182 662.574 33.1591 664.71 33.1591ZM674.842 33.1932C677.53 33.1932 679.104 31 679.104 27.1875C679.104 23.4034 677.507 21.2045 674.842 21.2045C672.172 21.2045 670.581 23.3977 670.575 27.1875C670.575 30.9943 672.149 33.1875 674.842 33.1932ZM674.842 31.6761C673.268 31.6761 672.32 30.0966 672.32 27.1875C672.325 24.2898 673.274 22.6932 674.842 22.6932C676.405 22.6932 677.359 24.2898 677.359 27.1875C677.359 30.0966 676.411 31.6761 674.842 31.6761Z" fill="#FE5C73"/>
<rect width="55" height="55" rx="20" fill="#DCFAF8"/>
<g clip-path="url(#clip0_105_393)">
<path d="M39.3716 28.0972C38.938 28.0453 38.5444 28.3551 38.4925 28.7889C37.8424 34.2357 33.2035 38.3434 27.7021 38.3434C22.754 38.3434 18.5046 35.0205 17.2264 30.3894L18.1727 30.9092C18.5557 31.1195 19.0367 30.9794 19.2468 30.5967C19.4571 30.2137 19.3172 29.7328 18.9343 29.5224L16.5069 28.1893C16.1244 27.9792 15.6438 28.1186 15.4333 28.5009L14.0982 30.9252C13.8875 31.308 14.027 31.7889 14.4095 31.9997C14.8046 32.1845 15.2561 32.0936 15.4839 31.6884L15.7933 31.1267C17.3607 36.2682 22.1471 39.9254 27.7021 39.9254C34.0041 39.9254 39.3183 35.2183 40.0631 28.9764C40.1151 28.5425 39.8052 28.1489 39.3716 28.0972Z" fill="#16DBCC"/>
<path d="M40.5214 21.8097C40.1206 21.6369 39.655 21.8216 39.482 22.2229L39.2327 22.8005C38.4539 20.8961 37.2039 19.192 35.5939 17.8726C33.3772 16.0555 30.5745 15.0551 27.702 15.0551C24.8295 15.0551 22.0268 16.0555 19.8099 17.8726C17.6237 19.6643 16.1002 22.165 15.5201 24.9138C15.4299 25.3412 15.7035 25.7608 16.1309 25.851C16.5577 25.9412 16.9779 25.6679 17.0679 25.2405C17.5741 22.8425 18.9039 20.6605 20.8127 19.096C22.7473 17.5103 25.1941 16.6371 27.702 16.6371C30.2097 16.6371 32.6565 17.5103 34.5912 19.096C36.0782 20.3146 37.2136 21.9084 37.8823 23.6869L36.8807 23.2562C36.4795 23.0837 36.0141 23.2689 35.8415 23.6702C35.6689 24.0715 35.8543 24.5366 36.2556 24.7092L38.7999 25.8036C39.2329 25.9826 39.6546 25.7997 39.839 25.3902L40.9346 22.8491C41.1077 22.4481 40.9227 21.9827 40.5214 21.8097Z" fill="#16DBCC"/>
<path d="M32.5773 21.6711C32.8043 21.2132 32.8391 20.6941 32.6757 20.2098C32.5124 19.7255 32.1702 19.3339 31.7123 19.1069C30.7668 18.6385 29.6168 19.0266 29.1482 19.9719C29.0458 20.1787 28.9827 20.3979 28.9593 20.6208C28.3483 20.5645 27.7272 20.6214 27.1253 20.7946C25.9273 21.139 24.9083 21.914 24.2561 22.9763L22.1202 26.455C21.8349 26.404 21.5399 26.4252 21.2577 26.5203C20.8163 26.6693 20.4593 26.9811 20.2527 27.3983L20.1118 27.6823C19.685 28.5438 20.0384 29.5921 20.9001 30.0189L25.5238 32.3099C25.0685 33.257 25.2724 34.3214 26.454 34.9159C27.4899 35.3415 28.6431 34.9245 29.0909 34.0775L29.5797 34.3195C29.824 34.4407 30.0873 34.5018 30.3522 34.5018C30.5398 34.5018 30.7283 34.4712 30.9112 34.4094C31.3525 34.2606 31.7094 33.9488 31.9163 33.5314L32.0569 33.2474C32.2638 32.83 32.2957 32.3573 32.1468 31.9158C32.0516 31.6336 31.8897 31.386 31.6763 31.1899L33.1503 27.3834C33.6004 26.2208 33.5996 24.9406 33.1481 23.7788C32.9213 23.195 32.5903 22.6665 32.1756 22.2143C32.3385 22.0606 32.4749 21.8779 32.5773 21.6711ZM30.8614 20.4871C31.0449 20.4871 31.1936 20.6358 31.1936 20.8191C31.1936 21.0027 31.0449 21.1512 30.8614 21.1512C30.678 21.1512 30.5293 21.0025 30.5293 20.8191C30.5293 20.6358 30.678 20.4871 30.8614 20.4871ZM27.4697 33.5195C27.3659 33.5547 27.2547 33.5471 27.1564 33.4985C27.0582 33.4499 26.9848 33.3658 26.9498 33.262C26.9224 33.1808 26.9214 33.0949 26.9455 33.0146L27.6694 33.3732C27.6197 33.441 27.5509 33.4923 27.4697 33.5195ZM31.675 26.8122L30.0693 30.9584C29.8434 31.4707 30.0595 32.0771 30.566 32.3284H30.5662C30.6488 32.3725 30.6791 32.4632 30.6395 32.5451L30.4986 32.8292C30.4515 32.9116 30.3674 32.9386 30.2821 32.9021L21.6025 28.6015C21.5226 28.5619 21.4896 28.4647 21.5292 28.385L21.6701 28.1009C21.7082 28.0307 21.7821 27.9808 21.8868 28.0278C22.1391 28.1528 22.425 28.172 22.692 28.0822C22.9439 27.9971 23.1505 27.8243 23.278 27.5929L25.6041 23.8041C26.0492 23.0791 26.7449 22.5501 27.5626 22.3148C28.3802 22.0796 29.2505 22.1581 30.0127 22.5359C30.0129 22.5359 30.0129 22.5359 30.0131 22.5361C30.0133 22.5361 30.0133 22.5361 30.0135 22.5363C30.7759 22.9141 31.3654 23.5588 31.6736 24.3519C31.9818 25.1449 31.9822 26.0187 31.675 26.8122Z" fill="#16DBCC"/>
</g>
<defs>
<clipPath id="clip0_105_393">
<rect width="27" height="27" fill="white" transform="translate(14 14)"/>
</clipPath>
</defs>
</svg>
