<svg width="300" height="60" viewBox="0 0 300 60" fill="none" xmlns="http://www.w3.org/2000/svg">
<rect width="60" height="60" rx="20" fill="#FFE0EB"/>
<path d="M39.3389 34.1611C37.9774 32.7997 36.3569 31.7918 34.5888 31.1817C36.4825 29.8775 37.7266 27.6947 37.7266 25.2266C37.7266 21.2418 34.4847 18 30.5 18C26.5153 18 23.2734 21.2418 23.2734 25.2266C23.2734 27.6947 24.5175 29.8775 26.4112 31.1817C24.6432 31.7918 23.0227 32.7997 21.6612 34.1611C19.3002 36.5221 18 39.6611 18 43H19.9531C19.9531 37.1844 24.6844 32.4531 30.5 32.4531C36.3156 32.4531 41.0469 37.1844 41.0469 43H43C43 39.6611 41.6998 36.5221 39.3389 34.1611ZM30.5 30.5C27.5922 30.5 25.2266 28.1344 25.2266 25.2266C25.2266 22.3187 27.5922 19.9531 30.5 19.9531C33.4078 19.9531 35.7734 22.3187 35.7734 25.2266C35.7734 28.1344 33.4078 30.5 30.5 30.5Z" fill="#FF82AC"/>
<path d="M83.5568 23H85.3295L87.7784 14.2841H87.8693L90.3182 23H92.0852L95.3182 11.3636H93.4659L91.2045 20.3807H91.0966L88.7386 11.3636H86.9091L84.5511 20.375H84.4432L82.1761 11.3636H80.3295L83.5568 23ZM96.7827 23H98.4815V14.2727H96.7827V23ZM97.6406 12.9261C98.2259 12.9261 98.7145 12.4716 98.7145 11.9148C98.7145 11.358 98.2259 10.8977 97.6406 10.8977C97.0497 10.8977 96.5668 11.358 96.5668 11.9148C96.5668 12.4716 97.0497 12.9261 97.6406 12.9261ZM102.466 11.3636H100.767V23H102.466V11.3636ZM106.45 11.3636H104.751V23H106.45V11.3636ZM108.736 23H110.435V14.2727H108.736V23ZM109.594 12.9261C110.179 12.9261 110.668 12.4716 110.668 11.9148C110.668 11.358 110.179 10.8977 109.594 10.8977C109.003 10.8977 108.52 11.358 108.52 11.9148C108.52 12.4716 109.003 12.9261 109.594 12.9261ZM115.26 23.1932C116.703 23.1932 117.516 22.4602 117.839 21.8068H117.908V23H119.567V17.2045C119.567 14.6648 117.567 14.1591 116.18 14.1591C114.601 14.1591 113.146 14.7955 112.578 16.3864L114.175 16.75C114.425 16.1307 115.061 15.5341 116.203 15.5341C117.3 15.5341 117.862 16.108 117.862 17.0966V17.1364C117.862 17.7557 117.226 17.7443 115.658 17.9261C114.004 18.1193 112.311 18.5511 112.311 20.5341C112.311 22.25 113.601 23.1932 115.26 23.1932ZM115.629 21.8295C114.669 21.8295 113.976 21.3977 113.976 20.5568C113.976 19.6477 114.783 19.3239 115.766 19.1932C116.317 19.1193 117.624 18.9716 117.868 18.7273V19.8523C117.868 20.8864 117.044 21.8295 115.629 21.8295ZM121.83 23H123.528V17.6193C123.528 16.4432 124.352 15.625 125.318 15.625C126.261 15.625 126.915 16.25 126.915 17.1989V23H128.608V17.4375C128.608 16.3864 129.25 15.625 130.358 15.625C131.256 15.625 131.994 16.125 131.994 17.3068V23H133.693V17.1477C133.693 15.1534 132.58 14.1591 131 14.1591C129.744 14.1591 128.801 14.7614 128.381 15.6932H128.29C127.909 14.7386 127.108 14.1591 125.943 14.1591C124.79 14.1591 123.932 14.733 123.568 15.6932H123.46V14.2727H121.83V23Z" fill="#B1B1B1"/>
<path d="M84.9645 37.0909H83.6435L80.9162 38.902V40.2443L83.5795 38.4759H83.6435V48H84.9645V37.0909ZM91.6602 48.1491C94.0678 48.1491 95.4528 46.109 95.4528 42.5455C95.4528 39.0085 94.0465 36.9418 91.6602 36.9418C89.2738 36.9418 87.8675 39.0085 87.8675 42.5455C87.8675 46.109 89.2525 48.1491 91.6602 48.1491ZM91.6602 46.9773C90.0728 46.9773 89.146 45.3846 89.146 42.5455C89.146 39.7116 90.0835 38.0923 91.6602 38.0923C93.2369 38.0923 94.1744 39.7116 94.1744 42.5455C94.1744 45.3846 93.2475 46.9773 91.6602 46.9773ZM104.806 48.1705C106.383 48.1705 106.916 47.1903 107.193 46.7429H107.342V48H108.556V37.0909H107.299V41.1179H107.193C106.916 40.6918 106.426 39.7116 104.828 39.7116C102.761 39.7116 101.333 41.3523 101.333 43.9304C101.333 46.5298 102.761 48.1705 104.806 48.1705ZM104.977 47.0412C103.4 47.0412 102.591 45.6562 102.591 43.9091C102.591 42.1832 103.379 40.8409 104.977 40.8409C106.511 40.8409 107.321 42.0767 107.321 43.9091C107.321 45.7628 106.49 47.0412 104.977 47.0412ZM113.441 48.1918C114.869 48.1918 115.614 47.4247 115.87 46.892H115.934V48H117.191V42.6094C117.191 40.0099 115.21 39.7116 114.165 39.7116C112.93 39.7116 111.523 40.1378 110.884 41.6293L112.077 42.0554C112.354 41.4588 113.01 40.8196 114.208 40.8196C115.364 40.8196 115.934 41.4322 115.934 42.4815V42.5241C115.934 43.1314 115.316 43.0781 113.825 43.2699C112.306 43.467 110.65 43.8026 110.65 45.6776C110.65 47.2756 111.886 48.1918 113.441 48.1918ZM113.633 47.0625C112.631 47.0625 111.907 46.6151 111.907 45.7415C111.907 44.7827 112.781 44.4844 113.761 44.3565C114.293 44.2926 115.721 44.1435 115.934 43.8878V45.0384C115.934 46.0611 115.124 47.0625 113.633 47.0625ZM120.002 51.0682C121.137 51.0682 121.936 50.4663 122.41 49.1932L125.894 39.8395L124.519 39.8182L122.261 46.3381H122.176L119.917 39.8182H118.553L121.579 48.0426L121.345 48.6818C120.886 49.9283 120.322 50.0455 119.406 49.8111L119.086 50.919C119.214 50.983 119.576 51.0682 120.002 51.0682ZM133.352 41.6506C132.958 40.4893 132.074 39.7116 130.455 39.7116C128.729 39.7116 127.45 40.6918 127.45 42.0767C127.45 43.206 128.121 43.9624 129.624 44.3139L130.987 44.6335C131.813 44.8253 132.202 45.2195 132.202 45.7841C132.202 46.4872 131.456 47.0625 130.284 47.0625C129.256 47.0625 128.612 46.6204 128.388 45.7415L127.195 46.0398C127.488 47.43 128.633 48.1705 130.305 48.1705C132.207 48.1705 133.501 47.1317 133.501 45.7202C133.501 44.5803 132.788 43.8612 131.328 43.5043L130.114 43.206C129.144 42.9663 128.707 42.6413 128.707 42.0128C128.707 41.3097 129.453 40.7983 130.455 40.7983C131.552 40.7983 132.005 41.4055 132.223 41.9702L133.352 41.6506ZM142.02 48.1918C143.448 48.1918 144.193 47.4247 144.449 46.892H144.513V48H145.77V42.6094C145.77 40.0099 143.789 39.7116 142.745 39.7116C141.509 39.7116 140.103 40.1378 139.463 41.6293L140.657 42.0554C140.934 41.4588 141.589 40.8196 142.787 40.8196C143.943 40.8196 144.513 41.4322 144.513 42.4815V42.5241C144.513 43.1314 143.895 43.0781 142.404 43.2699C140.886 43.467 139.229 43.8026 139.229 45.6776C139.229 47.2756 140.465 48.1918 142.02 48.1918ZM142.212 47.0625C141.21 47.0625 140.486 46.6151 140.486 45.7415C140.486 44.7827 141.36 44.4844 142.34 44.3565C142.872 44.2926 144.3 44.1435 144.513 43.8878V45.0384C144.513 46.0611 143.703 47.0625 142.212 47.0625ZM151.367 51.2386C153.327 51.2386 154.904 50.3438 154.904 48.2344V39.8182H153.69V41.1179H153.562C153.285 40.6918 152.773 39.7116 151.175 39.7116C149.109 39.7116 147.681 41.3523 147.681 43.8665C147.681 46.4233 149.173 47.8722 151.154 47.8722C152.752 47.8722 153.263 46.9347 153.54 46.4872H153.647V48.1491C153.647 49.5128 152.688 50.1307 151.367 50.1307C149.881 50.1307 149.359 49.3477 149.023 48.8949L148.022 49.598C148.533 50.4556 149.54 51.2386 151.367 51.2386ZM151.325 46.7429C149.748 46.7429 148.938 45.5497 148.938 43.8452C148.938 42.1832 149.727 40.8409 151.325 40.8409C152.859 40.8409 153.668 42.0767 153.668 43.8452C153.668 45.6562 152.837 46.7429 151.325 46.7429ZM160.529 48.1705C162.745 48.1705 164.237 46.4872 164.237 43.9517C164.237 41.3949 162.745 39.7116 160.529 39.7116C158.313 39.7116 156.822 41.3949 156.822 43.9517C156.822 46.4872 158.313 48.1705 160.529 48.1705ZM160.529 47.0412C158.846 47.0412 158.079 45.5923 158.079 43.9517C158.079 42.3111 158.846 40.8409 160.529 40.8409C162.212 40.8409 162.979 42.3111 162.979 43.9517C162.979 45.5923 162.212 47.0412 160.529 47.0412Z" fill="#718EBF"/>
<path d="M274.449 37.4545H275.381V36.1875C277.767 36.0227 279.108 34.6136 279.108 32.8409C279.108 30.6591 277.04 29.9545 275.835 29.6364L275.381 29.5114V25.4716C276.585 25.5909 277.46 26.2386 277.585 27.2727H278.949C278.892 25.6136 277.438 24.3523 275.381 24.2159V22.9091H274.449V24.233C272.5 24.4318 271.04 25.6705 271.04 27.4545C271.04 29.0227 272.176 29.9545 273.994 30.4773L274.449 30.608V34.9091C273.256 34.7841 272.278 34.1705 272.176 33H270.722C270.852 34.7898 272.216 36.0398 274.449 36.1875V37.4545ZM275.381 34.9091V30.875L275.426 30.8864C276.653 31.2273 277.744 31.6591 277.744 32.8182C277.744 33.9602 276.756 34.7557 275.381 34.9091ZM274.449 29.2614C273.585 29.017 272.403 28.5398 272.403 27.3864C272.403 26.4034 273.199 25.6534 274.449 25.4886V29.2614ZM284.925 24.2045C282.561 24.1761 281.038 25.9545 281.038 28.0909C281.038 30.3409 282.697 31.9545 284.697 31.9545C285.902 31.9545 286.925 31.3636 287.561 30.4091H287.652C287.652 33.2727 286.538 34.9091 284.743 34.9091C283.516 34.9091 282.766 34.1364 282.516 33.0682H281.129C281.402 34.9091 282.788 36.1591 284.743 36.1591C287.357 36.1591 288.97 33.8409 288.97 29.7045C288.97 25.4318 286.834 24.2273 284.925 24.2045ZM284.925 25.4545C286.379 25.4545 287.447 26.7045 287.447 28.0682C287.447 29.4545 286.311 30.7045 284.879 30.7045C283.447 30.7045 282.402 29.5455 282.402 28.0909C282.402 26.6364 283.493 25.4545 284.925 25.4545ZM295 36.1591C297.568 36.1591 299.045 33.983 299.045 30.1818C299.045 26.4091 297.545 24.2045 295 24.2045C292.455 24.2045 290.955 26.4091 290.955 30.1818C290.955 33.983 292.432 36.1591 295 36.1591ZM295 34.9091C293.307 34.9091 292.318 33.2102 292.318 30.1818C292.318 27.1591 293.318 25.4318 295 25.4318C296.682 25.4318 297.682 27.1591 297.682 30.1818C297.682 33.2102 296.693 34.9091 295 34.9091Z" fill="#718EBF"/>
</svg>
